<?xml version="1.0" standalone="no"?>
<!DOCTYPE svg PUBLIC "-//W3C//DTD SVG 20010904//EN"
 "http://www.w3.org/TR/2001/REC-SVG-20010904/DTD/svg10.dtd">
<svg version="1.0" xmlns="http://www.w3.org/2000/svg"
 width="512.000000pt" height="512.000000pt" viewBox="0 0 512.000000 512.000000"
 preserveAspectRatio="xMidYMid meet">
<metadata>
Created by potrace 1.14, written by Peter Selinger 2001-2017
</metadata>
<g transform="translate(0.000000,512.000000) scale(0.100000,-0.100000)"
fill="#000000" stroke="none">
<path d="M630 5110 c0 -5 5 -10 10 -10 6 0 10 5 10 10 0 6 -4 10 -10 10 -5 0
-10 -4 -10 -10z"/>
<path d="M657 5081 c-6 -23 7 -48 17 -32 4 6 4 11 -1 11 -4 0 -2 4 6 9 7 5 10
14 7 20 -11 17 -23 13 -29 -8z"/>
<path d="M750 5060 c0 -5 5 -10 10 -10 6 0 10 5 10 10 0 6 -4 10 -10 10 -5 0
-10 -4 -10 -10z"/>
<path d="M750 5028 c0 -9 5 -20 11 -23 17 -11 20 0 4 21 -13 17 -14 17 -15 2z"/>
<path d="M591 5021 c-10 -7 -11 -13 -1 -31 10 -18 14 -20 21 -9 8 12 11 11 20
-4 5 -9 23 -24 39 -32 28 -14 35 -13 31 9 -1 4 3 14 10 22 19 23 -1 37 -47 31
-33 -3 -44 -1 -44 9 0 16 -9 17 -29 5z"/>
<path d="M2580 4954 c0 -8 5 -12 10 -9 6 3 10 10 10 16 0 5 -4 9 -10 9 -5 0
-10 -7 -10 -16z"/>
<path d="M790 4930 c0 -5 4 -10 9 -10 6 0 13 5 16 10 3 6 -1 10 -9 10 -9 0
-16 -4 -16 -10z"/>
<path d="M2489 4935 c-1 -3 -2 -8 -3 -12 -1 -5 -4 -13 -8 -18 -4 -6 -3 -17 2
-24 6 -10 12 -6 24 17 14 26 14 31 1 36 -8 3 -16 3 -16 1z"/>
<path d="M560 4908 c0 -20 1 -21 20 -3 11 10 20 20 20 22 0 1 -9 3 -20 3 -14
0 -20 -7 -20 -22z"/>
<path d="M625 4910 c18 -20 18 -21 -1 -13 -18 7 -18 6 -2 -19 15 -22 15 -27 3
-32 -8 -3 -17 0 -21 6 -10 16 -33 -19 -27 -41 4 -16 9 -17 39 -8 19 6 36 8 39
6 2 -3 7 -24 11 -47 5 -34 4 -42 -9 -42 -9 0 -24 11 -35 25 -25 31 -32 31 -32
1 0 -33 25 -56 62 -56 31 0 31 1 11 -47 -3 -7 6 -15 21 -19 14 -3 26 -10 26
-14 0 -16 -30 -31 -50 -25 -12 4 -26 1 -35 -8 -8 -9 -20 -17 -27 -20 -7 -2
-10 -7 -6 -11 3 -4 16 -1 28 6 18 11 23 11 36 -6 18 -25 18 -42 0 -27 -20 17
-71 -6 -55 -26 14 -16 33 -17 59 -1 16 10 23 9 40 -7 l21 -19 -11 28 c-6 16
-8 37 -5 47 7 20 40 26 50 8 5 -6 11 -4 19 7 12 16 13 15 18 -3 6 -21 54 -37
64 -22 2 4 12 5 22 2 15 -6 16 -5 2 13 -8 10 -25 29 -36 42 -12 13 -27 42 -33
63 -10 32 -9 43 4 63 15 23 15 25 -2 29 -13 3 -9 7 15 12 33 8 36 12 26 39 -8
21 -72 21 -101 1 -27 -19 -42 -3 -41 42 1 37 -17 64 -37 57 -7 -3 -16 3 -20
15 -4 13 -15 21 -27 21 -21 0 -21 0 -3 -20z m125 -160 c0 -11 -4 -20 -10 -20
-5 0 -10 9 -10 20 0 11 5 20 10 20 6 0 10 -9 10 -20z"/>
<path d="M727 4914 c-9 -9 4 -35 14 -28 5 3 9 -6 9 -20 0 -35 12 -38 39 -10
23 24 21 47 -3 38 -7 -3 -16 2 -19 10 -6 16 -28 21 -40 10z"/>
<path d="M2621 4892 c-17 -31 -13 -40 5 -14 9 13 14 26 11 29 -3 2 -10 -4 -16
-15z"/>
<path d="M2653 4867 c-28 -31 -53 -86 -42 -93 14 -8 29 5 29 27 0 10 3 19 8
19 4 1 21 12 37 26 18 16 23 24 12 20 -10 -3 -15 -2 -12 3 12 21 -13 19 -32
-2z"/>
<path d="M1600 4860 c0 -24 15 -27 24 -4 9 22 8 24 -9 24 -8 0 -15 -9 -15 -20z"/>
<path d="M1657 4866 c-9 -7 -17 -21 -17 -31 0 -14 -7 -16 -35 -13 l-35 4 27
-28 c18 -19 24 -31 17 -36 -12 -7 -54 -94 -54 -111 0 -5 8 -12 19 -16 13 -4
17 -12 13 -30 -2 -15 4 -34 17 -51 19 -24 19 -28 6 -47 -8 -12 -15 -25 -15
-29 0 -13 38 -9 42 3 3 9 10 8 25 -1 19 -12 20 -16 8 -49 -8 -24 -18 -35 -29
-33 -13 2 -16 -6 -16 -43 0 -34 4 -45 15 -45 14 0 14 -3 0 -30 -19 -37 -19
-45 2 -66 20 -19 26 -110 10 -132 -11 -14 -13 -12 36 -35 36 -16 37 -16 37 3
0 11 2 20 5 20 16 0 87 -43 91 -55 3 -7 12 -11 19 -9 7 3 16 1 20 -5 3 -6 -1
-11 -10 -11 -8 0 -20 -10 -25 -22 -5 -14 -9 -17 -10 -8 0 12 -3 11 -11 -3 -8
-14 -8 -22 0 -30 8 -8 11 -8 11 1 0 7 7 12 15 12 14 0 13 -3 -1 -25 -13 -20
-14 -28 -4 -40 11 -13 8 -15 -17 -15 -26 0 -31 -5 -48 -52 -10 -28 -18 -70
-17 -94 0 -29 -4 -41 -12 -38 -14 5 -54 -22 -44 -31 3 -4 15 -2 26 4 12 6 36
11 54 11 30 -1 31 -2 16 -14 -19 -14 -25 -32 -8 -21 15 9 12 -4 -5 -21 -21
-21 -19 -34 5 -35 11 -1 25 -3 30 -4 6 -1 15 -3 22 -4 7 -1 6 -7 -4 -18 -15
-19 -13 -53 4 -53 14 0 68 40 68 51 0 5 9 18 20 29 21 21 28 46 9 34 -7 -4
-10 -1 -7 7 3 8 10 15 16 15 7 1 19 2 27 3 17 1 21 46 4 56 -5 4 -9 19 -7 33
2 19 10 29 28 33 21 6 19 7 -12 8 -21 0 -38 5 -38 10 0 5 9 37 19 71 11 34 18
71 16 82 -3 15 -1 17 9 9 25 -21 35 9 10 33 -25 26 -69 20 -93 -11 -18 -25
-19 -26 -14 -5 3 12 9 22 13 22 5 0 12 9 15 20 4 13 15 20 32 20 20 0 24 4 20
20 -3 13 0 20 8 20 8 0 17 5 21 11 5 8 -4 10 -30 7 -35 -4 -36 -3 -36 27 0 30
-15 55 -33 55 -5 0 -7 -7 -3 -15 8 -22 -9 -18 -40 8 -26 23 -26 25 -12 46 l16
23 17 -26 c20 -30 31 -27 37 9 5 22 2 25 -23 25 -20 0 -27 4 -23 14 3 8 -3 17
-15 21 -19 6 -19 7 -3 35 13 23 19 26 25 14 4 -7 20 -14 34 -14 23 0 25 2 12
13 -9 6 -23 25 -33 40 -9 15 -28 33 -41 39 -13 6 -25 22 -28 38 -4 15 -14 35
-23 44 -11 11 -13 21 -7 27 6 6 14 4 23 -6 7 -8 25 -15 41 -15 15 0 31 -5 34
-10 4 -6 11 -7 17 -4 7 4 6 9 -3 14 -10 7 -10 12 -1 23 7 7 9 17 5 20 -3 4 0
13 7 22 13 16 7 45 -10 45 -5 0 -10 -12 -10 -27 0 -14 -3 -24 -6 -20 -3 3 -6
22 -6 42 0 31 -2 35 -20 29 -32 -10 -41 17 -16 43 12 13 16 23 10 23 -6 0 -9
7 -6 15 4 8 10 13 14 10 5 -3 19 0 32 5 22 10 22 10 -3 5 -18 -3 -29 0 -33 10
-3 8 -11 14 -18 13 -8 -2 -14 8 -15 22 0 14 -1 31 -2 38 -1 7 -9 12 -18 10
-11 -2 -18 3 -18 13 0 9 -8 24 -18 33 -16 17 -19 17 -43 1 -17 -11 -24 -23
-21 -35 3 -12 -4 -26 -17 -37 -11 -10 -18 -14 -14 -9 4 4 3 19 -2 32 -6 15 -6
34 1 50 12 32 9 36 -14 20z m108 -86 c3 -5 -1 -10 -9 -10 -9 0 -16 5 -16 10 0
6 4 10 9 10 6 0 13 -4 16 -10z m-111 -69 c14 -16 15 -20 2 -30 -11 -9 -15 -9
-20 1 -3 7 -4 -4 -2 -25 3 -22 1 -35 -5 -32 -5 4 -9 13 -9 21 0 8 -4 14 -8 14
-6 0 -7 21 -3 63 2 14 28 7 45 -12z m66 -7 c0 -8 -4 -12 -10 -9 -5 3 -10 13
-10 21 0 8 5 12 10 9 6 -3 10 -13 10 -21z m95 -40 c-18 -19 -22 -18 -28 9 -2
12 -8 31 -12 42 -6 16 -2 14 23 -9 26 -24 29 -31 17 -42z m-85 -35 c0 -4 12
-12 28 -17 18 -7 21 -11 9 -11 -28 -1 -91 50 -75 60 12 8 38 -14 38 -32z m57
-59 c2 -22 -4 -24 -26 -11 -11 7 -10 11 5 20 11 6 19 11 19 11 1 0 1 -9 2 -20z
m-63 -215 c-9 -14 -14 -36 -12 -50 3 -16 1 -25 -7 -25 -22 0 -32 24 -28 63 5
33 8 37 34 37 29 0 29 0 13 -25z m-18 -137 c1 -31 7 -46 23 -56 29 -19 27 -42
-3 -42 -31 0 -34 5 -42 71 -3 30 -8 57 -11 62 -2 4 4 7 14 7 15 0 19 -8 19
-42z m98 36 c9 -3 16 -15 16 -26 0 -22 -15 -16 -30 13 -12 21 -10 22 14 13z
m-8 -161 c-11 -11 -17 4 -9 23 7 18 8 18 11 1 2 -10 1 -21 -2 -24z m137 -214
c-4 -15 -9 -17 -17 -9 -8 8 -7 13 4 20 8 5 16 10 17 10 0 0 -1 -9 -4 -21z
m-62 -66 c-9 -16 -10 -15 -11 8 0 14 3 29 8 33 12 12 14 -22 3 -41z m53 -86
c10 -37 7 -46 -14 -44 -11 1 -21 5 -21 9 -4 24 -5 54 -2 60 7 13 31 -3 37 -25z
m-114 19 c0 -2 -7 -7 -16 -10 -8 -3 -12 -2 -9 4 6 10 25 14 25 6z m60 -95 c8
-15 8 -21 1 -17 -6 4 -15 -2 -19 -15 -6 -15 -11 -19 -16 -10 -6 9 14 76 20 68
1 -1 7 -13 14 -26z m20 -76 c0 -12 -19 -12 -23 0 -4 9 -1 12 9 8 7 -3 14 -7
14 -8z"/>
<path d="M2510 4870 c0 -5 5 -10 10 -10 6 0 10 5 10 10 0 6 -4 10 -10 10 -5 0
-10 -4 -10 -10z"/>
<path d="M3522 4868 c3 -7 -7 -22 -21 -35 -22 -19 -23 -22 -8 -23 10 0 22 -10
27 -22 5 -13 9 -17 9 -10 1 6 7 12 15 12 8 0 13 7 11 18 -12 60 -16 72 -26 72
-6 0 -9 -5 -7 -12z"/>
<path d="M2567 4855 c-4 -8 -2 -17 3 -20 6 -4 10 3 10 14 0 25 -6 27 -13 6z"/>
<path d="M1820 4842 c0 -15 11 -21 27 -15 12 5 12 7 1 14 -17 11 -28 11 -28 1z"/>
<path d="M2730 4840 c0 -5 9 -10 20 -10 11 0 20 5 20 10 0 6 -9 10 -20 10 -11
0 -20 -4 -20 -10z"/>
<path d="M2536 4825 c4 -8 10 -12 15 -9 11 6 2 24 -11 24 -5 0 -7 -7 -4 -15z"/>
<path d="M3380 4816 c0 -13 6 -29 14 -35 11 -9 13 -7 11 11 -1 13 -3 29 -4 36
-2 22 -21 12 -21 -12z"/>
<path d="M2575 4810 c4 -6 11 -8 16 -5 14 9 11 15 -7 15 -8 0 -12 -5 -9 -10z"/>
<path d="M2675 4810 c-3 -5 -1 -10 4 -10 6 0 11 5 11 10 0 6 -2 10 -4 10 -3 0
-8 -4 -11 -10z"/>
<path d="M3576 4793 c-6 -14 -5 -15 5 -6 7 7 10 15 7 18 -3 3 -9 -2 -12 -12z"/>
<path d="M1547 4774 c-6 -33 7 -39 21 -10 8 19 8 25 -3 29 -8 4 -15 -4 -18
-19z"/>
<path d="M3427 4785 c-7 -15 1 -25 20 -25 7 0 13 6 13 14 0 19 -27 28 -33 11z"/>
<path d="M2540 4774 c0 -9 10 -24 22 -33 12 -10 22 -28 23 -39 1 -17 -3 -20
-20 -16 -30 7 -39 -19 -15 -41 28 -25 46 -13 54 35 4 25 11 38 17 34 10 -6 38
22 39 39 0 11 -35 8 -48 -5 -9 -9 -16 -5 -32 15 -24 30 -40 35 -40 11z"/>
<path d="M2506 4772 c-3 -6 -1 -14 5 -17 15 -10 25 3 12 16 -7 7 -13 7 -17 1z"/>
<path d="M3335 4770 c3 -5 8 -10 11 -10 2 0 4 5 4 10 0 6 -5 10 -11 10 -5 0
-7 -4 -4 -10z"/>
<path d="M1835 4760 c-3 -5 1 -10 9 -10 9 0 16 5 16 10 0 6 -4 10 -9 10 -6 0
-13 -4 -16 -10z"/>
<path d="M1890 4745 c-7 -9 -11 -18 -8 -20 3 -3 11 1 18 10 7 9 11 18 8 20 -3
3 -11 -1 -18 -10z"/>
<path d="M3506 4743 c-14 -7 -28 -25 -32 -41 -11 -54 -15 -59 -26 -32 -22 57
-70 80 -83 39 -5 -13 -1 -27 9 -37 14 -14 16 -14 22 1 5 13 9 14 24 5 14 -9
16 -16 9 -29 -7 -14 -4 -18 13 -21 28 -4 34 -24 9 -31 -12 -3 -33 5 -52 19
-35 25 -42 23 -54 -13 -5 -20 -3 -23 18 -23 14 0 28 -7 31 -16 3 -9 12 -14 19
-11 6 2 24 -4 39 -15 16 -11 32 -17 37 -13 16 9 22 -12 6 -25 -11 -9 -20 -8
-44 9 -16 12 -33 21 -39 21 -15 0 -11 -51 4 -57 23 -9 16 -21 -18 -33 -42 -14
-77 -58 -57 -71 10 -6 16 -2 21 12 5 14 14 19 24 15 9 -3 18 -6 20 -6 2 0 -3
-11 -11 -24 -17 -26 -17 -82 0 -79 6 1 19 5 30 9 19 7 19 7 3 -9 -9 -9 -14
-25 -11 -36 6 -23 -4 -29 -51 -33 -36 -2 -36 -3 -16 -18 14 -10 19 -22 14 -33
-4 -13 -1 -17 14 -17 12 0 24 5 27 10 5 8 11 8 19 1 7 -6 15 -9 17 -7 2 2 4
-19 5 -46 l1 -51 -23 28 c-23 29 -46 30 -50 2 -1 -9 1 -15 6 -12 4 3 11 -2 14
-10 4 -10 -3 -20 -19 -27 -24 -11 -25 -12 -8 -32 15 -17 15 -19 1 -8 -26 21
-30 -3 -4 -27 21 -19 24 -20 30 -6 3 9 6 25 6 35 0 16 4 18 23 11 22 -9 23
-14 12 -80 -7 -42 -12 -48 -27 -33 -14 14 -48 16 -48 4 0 -5 9 -18 20 -30 22
-23 21 -24 -33 -42 -35 -11 -37 -13 -20 -26 10 -7 33 -14 51 -14 32 0 40 -12
23 -39 -5 -8 -16 -11 -30 -6 -16 5 -19 3 -15 -8 6 -17 76 -16 82 1 7 23 22 11
22 -18 0 -23 -6 -33 -22 -39 -21 -8 -19 -10 21 -22 40 -12 42 -14 22 -23 -14
-6 -19 -15 -16 -26 4 -13 -2 -19 -26 -24 -42 -8 -58 -22 -52 -46 4 -15 11 -18
28 -14 18 4 23 2 21 -10 -1 -8 -5 -19 -9 -22 -4 -4 -7 -14 -7 -22 0 -10 9 -13
35 -10 32 4 33 3 19 -13 -12 -13 -23 -15 -49 -9 -30 7 -35 5 -35 -10 0 -27
-28 -46 -48 -33 -15 9 -17 5 -13 -34 3 -43 2 -44 -18 -34 -16 9 -21 9 -19 1 2
-7 -13 -17 -32 -23 -27 -9 -36 -19 -41 -42 -4 -16 -7 -24 -8 -16 -1 9 -9 12
-26 9 -22 -5 -25 -2 -25 22 0 23 -4 27 -20 23 -10 -3 -22 -14 -25 -24 -4 -10
-13 -19 -21 -19 -8 0 -14 -4 -14 -9 0 -12 37 -24 50 -16 6 4 10 -5 10 -21 0
-22 -3 -25 -12 -16 -15 15 -49 -13 -41 -34 3 -9 -1 -14 -12 -14 -13 0 -16 6
-12 22 6 22 -7 48 -24 48 -5 0 -6 -6 -3 -13 5 -15 -54 -79 -67 -71 -13 8 -11
48 4 63 10 11 8 11 -10 2 -19 -9 -24 -8 -33 9 -13 23 -23 25 -42 7 -24 -25
-39 -9 -23 23 19 37 19 40 -3 40 -25 0 -42 -20 -42 -50 l0 -25 -21 25 c-11 14
-22 21 -25 15 -13 -30 -45 -75 -54 -75 -29 0 16 81 55 98 15 7 23 17 20 22 -3
5 0 7 7 5 8 -3 22 1 33 9 17 13 18 15 3 16 -14 0 -15 5 -6 36 7 28 7 39 -4 45
-10 6 -10 11 -1 20 9 9 16 9 28 -1 12 -10 15 -10 15 3 0 8 3 23 6 32 6 14 2
15 -30 10 -29 -6 -36 -4 -36 8 0 21 17 30 55 29 29 -1 31 1 27 28 -5 35 -20
38 -56 9 l-26 -21 -9 24 c-12 30 4 48 22 24 12 -16 15 -14 41 24 l28 43 -25
-7 c-23 -5 -24 -3 -23 33 0 22 3 35 7 30 3 -6 11 -4 19 6 10 12 10 15 0 15
-10 0 -10 3 0 15 15 18 -1 20 -18 3 -10 -10 -14 -8 -18 10 -4 12 -10 22 -14
22 -4 0 -5 11 -2 25 2 15 0 25 -7 25 -7 0 -9 5 -4 13 13 20 13 41 0 49 -22 14
-37 8 -48 -19 -13 -34 -29 -19 -39 34 -6 38 -10 40 -42 28 -14 -5 -17 -1 -16
24 1 29 4 31 38 31 28 0 39 5 48 23 8 17 11 18 11 5 1 -11 9 -18 20 -18 28 0
71 39 70 63 0 15 -2 17 -6 7 -3 -8 -10 -18 -15 -21 -18 -12 -70 5 -96 31 -25
25 -29 26 -50 12 -16 -10 -26 -12 -33 -5 -7 7 0 19 24 37 44 33 53 33 61 -4 4
-24 11 -30 31 -30 14 0 25 -6 26 -12 0 -7 4 -4 8 7 5 11 5 25 0 31 -6 7 -3 16
6 24 21 18 2 39 -30 32 -34 -6 -33 16 3 45 25 21 26 22 6 23 -12 0 -24 -7 -28
-15 -7 -19 -46 -20 -46 -1 0 8 12 19 28 24 l27 10 -27 11 c-16 6 -28 17 -28
26 0 9 -9 15 -25 15 -23 0 -25 3 -19 28 9 34 8 34 27 27 8 -4 17 -15 20 -26 3
-13 13 -20 24 -18 10 1 25 -1 34 -5 8 -4 26 -3 39 2 l24 9 -26 17 c-14 9 -39
16 -55 14 -24 -3 -28 0 -25 21 1 14 -3 28 -10 33 -9 5 -6 8 10 8 13 0 22 6 22
15 0 8 5 15 11 15 6 0 9 10 7 23 -2 12 -9 21 -17 19 -8 -2 -24 7 -37 19 -21
20 -24 20 -24 5 0 -10 9 -20 20 -23 24 -6 25 -10 6 -29 -19 -18 -26 -18 -26 1
0 9 -8 25 -18 36 -19 19 -19 19 -30 -6 -19 -40 -40 -32 -37 15 3 49 -12 49
-37 0 -12 -24 -14 -36 -7 -41 6 -4 13 -22 15 -40 l4 -34 -19 28 c-16 26 -20
27 -34 13 -18 -19 -12 -54 11 -58 12 -2 16 -15 17 -50 0 -26 -5 -50 -11 -52
-6 -2 -10 5 -10 16 1 19 -28 48 -37 38 -3 -3 -1 -29 2 -57 4 -29 5 -53 1 -53
-3 0 -6 -9 -7 -19 -1 -14 5 -18 23 -17 24 1 29 23 9 38 -6 4 -2 8 8 8 9 0 17
-5 17 -11 0 -7 7 -17 14 -23 8 -6 21 -39 29 -73 14 -61 14 -63 -5 -63 -17 0
-19 -5 -13 -32 7 -30 6 -31 -9 -15 -26 25 -49 22 -41 -5 4 -13 9 -31 11 -40 4
-14 10 -16 23 -8 23 12 30 5 24 -21 -4 -15 -8 -17 -19 -8 -11 9 -14 8 -14 -4
0 -19 23 -44 50 -52 29 -9 25 -24 -22 -72 -40 -41 -41 -43 -18 -43 23 -1 24
-2 8 -14 -10 -7 -18 -20 -18 -28 0 -18 31 -48 49 -48 7 0 11 -6 8 -14 -3 -7 1
-23 9 -34 12 -18 11 -20 -6 -25 -11 -3 -20 0 -20 6 0 28 -15 -9 -16 -41 -1
-20 -4 -49 -6 -64 -5 -27 1 -32 30 -29 15 2 15 6 -3 -53 -20 -64 -19 -76 4
-76 28 0 34 -15 15 -35 -9 -9 -14 -19 -10 -22 3 -3 1 -12 -4 -18 -8 -9 -6 -14
5 -19 15 -5 15 -8 1 -21 -16 -16 -12 -40 10 -62 8 -9 14 -9 23 0 18 18 13 55
-10 78 l-22 22 24 18 c35 27 40 24 39 -23 -2 -67 4 -83 30 -80 37 4 4 -26 -37
-34 -33 -6 -34 -8 -31 -48 3 -38 1 -41 -20 -38 -21 3 -22 1 -13 -17 14 -25 14
-74 1 -66 -5 3 -19 1 -30 -5 -16 -9 -25 -8 -38 2 -14 11 -15 11 -9 -4 20 -51
19 -52 -11 -24 -27 25 -30 26 -25 8 5 -19 2 -20 -23 -14 -55 14 -69 9 -66 -21
2 -24 -1 -27 -26 -27 -15 0 -34 6 -42 13 -12 10 -12 9 -2 -4 11 -15 7 -29 -8
-29 -4 0 -13 14 -21 31 -12 31 -13 31 -21 9 -6 -16 -5 -26 4 -31 9 -6 8 -12
-5 -27 -9 -10 -17 -27 -17 -37 0 -15 -2 -15 -16 -4 -14 11 -13 15 8 30 18 15
21 22 12 35 -17 29 -34 28 -34 0 0 -14 -5 -26 -10 -26 -6 0 -15 -12 -21 -26
-7 -20 -6 -32 6 -50 14 -22 13 -23 -18 -33 -17 -6 -69 -13 -113 -15 -76 -4
-81 -3 -77 15 6 20 37 34 54 24 14 -9 49 29 49 55 0 16 -6 20 -30 20 -30 0
-30 0 -14 25 20 30 10 47 -24 43 -21 -2 -28 3 -36 25 -12 32 8 63 24 37 5 -8
6 -18 4 -22 -10 -16 13 -8 29 10 21 23 22 46 3 39 -21 -8 -31 9 -49 81 -15 61
-14 63 5 56 18 -5 18 -4 6 18 -7 12 -17 26 -23 30 -5 4 0 8 13 8 25 0 30 15 7
24 -8 3 -21 -4 -30 -17 -14 -20 -15 -21 -16 -2 -1 11 -1 24 0 28 1 5 -3 6 -9
2 -5 -3 -10 -15 -10 -25 0 -29 -11 -50 -26 -50 -9 0 -14 -10 -12 -28 2 -30 -7
-52 -23 -52 -14 0 -11 68 4 77 8 4 22 20 31 35 17 26 17 27 -3 38 -32 16 -26
33 9 25 26 -6 30 -4 30 14 0 18 -4 20 -25 15 l-24 -6 31 57 c28 52 29 56 9 46
-11 -7 -21 -22 -21 -34 -1 -20 -1 -21 -11 -4 -8 13 -7 27 1 48 13 31 5 74 -9
51 -4 -8 -7 5 -7 30 1 34 -3 43 -18 46 -19 4 -19 6 -2 -65 3 -16 -1 -26 -15
-33 -20 -11 -26 -40 -8 -40 5 0 7 -4 4 -10 -3 -5 -15 -10 -26 -10 -10 0 -19 5
-19 10 0 6 -7 10 -15 10 -8 0 -15 5 -15 10 0 17 -28 11 -39 -7 -9 -17 -10 -17
-18 2 -12 29 -31 29 -25 -1 5 -30 20 -40 35 -25 6 6 21 11 33 11 17 0 23 -7
26 -27 2 -20 9 -29 26 -31 33 -5 27 -19 -15 -33 -51 -16 -53 -17 -47 -34 4
-10 15 -12 35 -8 31 6 40 -12 17 -35 -14 -14 -32 -16 -23 -3 3 5 -8 3 -25 -5
-26 -14 -29 -19 -26 -55 2 -24 12 -50 26 -64 l23 -25 -21 0 c-25 0 -26 -3 -10
-30 11 -16 9 -22 -7 -34 -15 -12 -16 -16 -5 -16 12 -1 12 -3 -2 -14 -16 -12
-14 -15 22 -29 29 -11 40 -21 40 -37 0 -12 -4 -18 -10 -15 -5 3 -10 -2 -10
-12 0 -12 8 -19 20 -20 11 -1 20 2 20 7 0 23 28 -4 32 -31 4 -25 1 -29 -20
-29 -19 0 -23 4 -19 20 3 11 1 20 -3 20 -5 0 -12 -15 -15 -32 -4 -18 -12 -36
-18 -39 -11 -8 -1 -29 14 -29 5 0 9 7 9 15 0 8 7 15 15 15 18 0 19 -12 3 -28
-10 -10 -10 -17 0 -32 18 -30 15 -51 -18 -99 -19 -28 -26 -47 -20 -51 6 -4 8
-14 4 -23 -4 -13 -10 -14 -24 -7 -10 6 -32 10 -48 10 -17 0 -32 6 -36 15 -3 8
-12 12 -21 9 -11 -5 -13 -10 -5 -19 5 -6 7 -15 3 -18 -12 -12 -19 -7 -20 14
-3 30 -13 37 -24 16 -6 -9 -19 -17 -29 -17 -25 0 -25 -15 -1 -39 19 -19 19
-19 -6 -26 -14 -3 -31 -1 -39 6 -19 15 -18 -1 2 -29 24 -35 12 -53 -27 -42
-17 5 -36 7 -42 3 -6 -3 -7 -1 -3 5 4 7 3 12 -3 12 -5 0 -13 -5 -16 -10 -4 -6
-14 -9 -23 -8 -12 2 -17 -5 -18 -29 -2 -51 -3 -53 -20 -46 -10 4 -20 0 -26
-10 -12 -23 -31 -21 -46 4 -16 26 -31 15 -48 -34 -9 -26 -16 -32 -37 -29 -21
2 -25 -1 -20 -14 5 -13 2 -15 -15 -9 -20 6 -21 4 -12 -21 12 -32 -6 -53 -52
-58 -6 0 -17 -17 -24 -36 l-12 -35 -15 35 c-15 35 -15 35 10 38 l25 4 -28 30
-29 31 30 -7 c16 -4 34 -8 40 -9 5 -1 11 11 13 26 3 26 1 27 -25 22 -15 -4
-34 -8 -40 -10 -7 -3 -16 7 -19 21 -5 18 -9 22 -14 13 -5 -6 -15 -9 -24 -6 -9
4 -16 2 -16 -4 0 -6 -5 -7 -11 -3 -8 4 -5 10 7 18 11 6 21 11 24 12 66 13 81
18 86 25 3 5 -6 9 -21 9 -25 0 -25 0 -11 35 8 19 11 35 6 35 -4 0 -10 -5 -12
-12 -3 -8 -9 -8 -23 -1 -25 14 -27 73 -3 73 22 0 35 45 18 65 -10 13 -9 15 10
15 18 0 21 -4 18 -25 -4 -21 -1 -25 17 -25 33 0 37 10 12 31 -12 10 -16 18 -9
19 6 0 12 7 12 15 0 8 -5 14 -12 12 -7 -1 -13 4 -14 11 -3 25 -5 27 -13 13 -8
-12 -12 -12 -25 -2 -9 7 -13 17 -10 22 11 18 -8 8 -28 -13 -16 -19 -19 -20
-14 -5 3 10 6 25 6 32 0 13 28 13 50 0 6 -3 10 1 10 9 0 9 -6 16 -13 16 -8 0
-14 7 -14 15 0 8 4 12 9 9 4 -3 8 1 9 8 0 7 2 23 5 35 3 18 -2 24 -21 29 -14
3 -32 16 -40 27 -14 20 -13 22 15 33 34 15 40 34 10 34 -12 0 -20 7 -21 18 0
9 -2 25 -4 34 -2 11 2 15 11 11 11 -4 12 1 3 25 -7 22 -7 36 0 51 6 11 11 28
11 39 0 16 -6 19 -31 16 -17 -2 -34 -6 -39 -9 -4 -3 -10 4 -13 15 -4 17 -2 18
15 9 33 -18 49 25 29 75 -5 13 -2 25 11 38 10 10 18 25 18 33 0 9 9 15 21 15
17 0 20 4 15 23 -3 12 -6 37 -6 55 0 25 -4 32 -19 32 -21 0 -36 26 -21 35 18
11 11 43 -16 74 -14 17 -21 31 -16 31 6 0 12 -4 14 -8 2 -5 20 -12 40 -15 27
-4 38 -2 42 10 4 10 2 13 -8 10 -8 -3 -18 4 -25 19 -6 13 -17 24 -26 24 -10 0
-15 10 -15 29 0 16 -6 31 -12 34 -10 3 -9 9 4 23 12 13 14 24 8 34 -5 8 -10
27 -10 41 0 21 -5 27 -22 27 -13 0 -38 2 -55 4 -37 6 -38 5 -22 -24 9 -16 7
-24 -5 -37 -15 -14 -18 -14 -26 -1 -13 19 -12 30 0 30 6 0 10 9 10 20 0 11 -4
20 -10 20 -5 0 -10 5 -10 10 0 6 11 10 25 10 14 0 25 5 25 10 0 6 14 4 31 -5
37 -20 43 -16 30 17 -7 20 -15 24 -34 21 -17 -3 -24 0 -24 12 0 11 6 15 18 12
9 -3 23 -1 30 4 12 7 12 9 0 9 -8 0 -11 7 -8 20 4 15 0 20 -15 20 -10 0 -35
16 -54 37 -39 41 -39 59 0 20 14 -14 27 -22 30 -19 3 3 16 6 29 7 14 1 21 8
19 18 -1 8 7 31 18 49 24 40 25 45 3 45 -25 0 -45 -17 -39 -34 3 -8 -2 -13
-15 -13 -16 0 -19 4 -14 20 4 12 2 27 -5 34 -8 11 -5 19 16 35 l27 21 -24 0
-23 0 21 15 c22 15 50 106 38 124 -3 6 6 13 20 17 18 4 25 13 25 29 l0 24 -47
-26 c-27 -15 -45 -23 -41 -18 14 15 -14 35 -51 35 -27 0 -44 7 -61 25 -19 20
-20 25 -7 25 9 0 18 -4 22 -10 3 -5 12 -7 21 -3 8 3 24 -3 34 -12 19 -17 20
-17 20 4 0 17 4 21 19 16 13 -4 20 0 23 12 9 35 -1 44 -32 28 -25 -13 -29 -13
-45 5 -16 18 -16 20 -1 26 19 7 22 40 4 47 -7 3 6 6 28 6 42 1 71 21 59 41 -3
5 -27 10 -51 10 -45 0 -46 0 -39 30 5 25 4 29 -9 24 -9 -3 -16 -1 -16 6 0 6
-4 9 -10 5 -5 -3 -7 -12 -4 -20 3 -7 -3 -18 -14 -24 -15 -8 -23 -6 -37 9 -10
11 -22 20 -27 20 -17 0 -7 -32 18 -57 14 -14 24 -26 22 -27 -2 -2 -18 -8 -36
-16 -64 -25 -81 -83 -34 -112 l27 -17 -32 -1 c-20 0 -42 -9 -55 -22 l-21 -21
6 31 c4 19 2 32 -3 32 -6 0 -10 10 -10 23 -1 21 -1 21 -15 3 -10 -13 -11 -24
-5 -37 14 -25 13 -26 -17 -34 -26 -7 -26 -8 -8 -15 11 -4 35 -11 52 -14 26 -6
33 -4 33 8 0 18 6 19 35 6 11 -5 14 -9 8 -9 -13 -1 -43 -51 -43 -71 0 -8 6 -7
21 0 11 7 23 10 25 7 5 -5 -27 -70 -39 -78 -5 -4 -5 -9 2 -13 6 -4 11 -4 11 0
0 3 12 -1 26 -11 14 -9 37 -15 50 -12 27 5 32 -14 9 -33 -10 -9 -15 -9 -15 -1
0 6 -11 11 -24 11 -18 0 -27 -8 -35 -30 -5 -16 -9 -30 -8 -31 1 0 9 -2 18 -4
47 -9 60 -17 49 -30 -6 -7 -10 -17 -9 -21 4 -21 -2 -34 -15 -34 -12 0 -12 -4
0 -29 8 -16 22 -35 30 -42 13 -11 17 -10 25 3 5 9 17 15 27 13 9 -2 27 -4 39
-4 12 -1 27 -11 34 -22 10 -20 9 -21 -15 -15 -14 3 -37 9 -51 12 -19 5 -25 2
-25 -11 0 -13 -6 -16 -25 -11 -14 4 -25 2 -25 -4 0 -6 -9 -6 -27 1 -26 10 -26
9 -10 -9 22 -24 22 -59 -1 -65 -16 -4 -15 -5 2 -12 26 -11 49 20 35 46 -8 16
-6 19 12 19 15 0 19 -5 15 -15 -3 -8 -1 -15 3 -15 5 0 11 7 15 15 3 9 12 12
22 8 9 -3 20 0 25 8 6 10 9 6 9 -13 0 -23 -4 -28 -24 -28 -28 0 -76 -51 -72
-77 3 -20 62 -27 84 -10 6 5 12 7 12 3 0 -3 -10 -12 -23 -21 -17 -11 -31 -12
-55 -6 -30 9 -31 8 -29 -19 1 -15 5 -26 8 -24 7 4 19 -20 19 -37 0 -5 -10 -9
-21 -9 -17 0 -19 -3 -10 -14 8 -10 9 -16 1 -21 -21 -13 -9 -25 24 -25 21 0 36
-6 40 -16 4 -11 0 -14 -17 -12 -18 2 -22 -2 -22 -22 0 -20 6 -26 27 -28 l27
-3 -29 -47 c-27 -44 -28 -48 -12 -60 15 -12 15 -13 -6 -18 -26 -7 -25 -4 -7
-40 8 -17 13 -50 11 -77 -2 -45 5 -59 20 -36 3 6 9 7 13 2 3 -5 17 -14 31 -20
l25 -11 -30 -13 c-43 -21 -83 -60 -90 -92 -7 -27 -7 -27 19 -16 24 11 31 25
27 57 -4 27 38 10 63 -26 26 -39 34 -72 16 -72 -5 0 -10 5 -10 10 0 15 -40 12
-40 -2 0 -7 -5 -5 -11 5 -8 14 -14 15 -30 6 l-21 -11 22 -23 c24 -25 67 -38
77 -23 3 6 -1 14 -8 19 -11 7 -11 9 3 9 12 0 16 -9 16 -34 0 -36 -22 -56 -42
-36 -16 16 -23 12 -28 -15 -3 -13 1 -34 9 -45 12 -17 12 -20 0 -20 -8 0 -17
-14 -20 -32 -3 -18 -8 -40 -12 -49 -4 -11 1 -19 17 -24 21 -7 21 -8 -9 -12
-38 -5 -41 -13 -14 -37 21 -19 41 -14 41 10 0 15 27 19 46 6 6 -4 16 -17 23
-29 9 -18 9 -22 -1 -19 -57 18 -68 17 -68 -8 0 -14 5 -28 10 -31 14 -9 12 -25
-3 -25 -8 0 -13 -12 -12 -29 0 -24 4 -29 24 -28 30 2 39 -19 11 -26 -17 -4
-21 -12 -18 -33 2 -15 9 -30 17 -32 9 -3 12 0 8 10 -4 12 2 11 31 -4 20 -10
44 -18 54 -18 11 0 15 -5 12 -15 -5 -11 -1 -14 12 -9 16 5 16 4 4 -5 -24 -17
-58 -14 -56 6 0 10 -7 19 -18 21 -11 2 -16 0 -12 -7 4 -5 -2 -15 -13 -20 -39
-21 -34 -75 8 -76 28 0 28 -19 -1 -26 -15 -3 -22 -11 -20 -24 3 -13 -1 -16
-16 -13 -19 5 -47 -24 -35 -36 12 -12 25 -6 19 10 -7 17 9 10 35 -15 14 -15
14 -17 0 -28 -14 -10 -14 -12 2 -17 52 -17 53 -19 19 -29 -21 -6 -31 -15 -28
-23 3 -8 -2 -17 -10 -22 -22 -12 -6 -42 22 -42 31 0 30 -4 -8 -67 -30 -49 -55
-72 -42 -38 7 18 0 19 -26 5 -16 -8 -18 -8 -14 5 4 10 0 15 -14 15 -21 0 -38
-26 -21 -32 17 -6 -11 -56 -33 -61 -12 -4 -17 -10 -13 -17 5 -8 1 -11 -11 -9
-21 4 -44 -7 -44 -21 0 -4 11 -11 25 -14 25 -6 25 -7 10 -36 -11 -21 -23 -30
-41 -30 -21 0 -24 -4 -19 -20 8 -26 -50 -98 -59 -74 -3 8 -1 14 4 14 6 0 10 7
10 16 0 10 -6 14 -15 10 -8 -3 -15 -1 -15 4 0 17 -20 11 -43 -14 -27 -29 -68
-37 -83 -17 -10 13 -15 13 -38 -2 -38 -25 -35 -49 4 -34 23 9 33 8 42 -1 9 -9
9 -12 0 -12 -7 0 -12 -10 -12 -22 0 -17 -3 -19 -9 -9 -6 9 -10 10 -16 2 -5 -9
-11 -9 -23 1 -13 11 -15 10 -10 -9 5 -18 2 -23 -13 -23 -22 0 -23 -4 -9 -31 9
-17 7 -19 -16 -19 -25 0 -26 2 -21 40 3 22 3 40 1 40 -2 0 -11 -14 -20 -32
-16 -32 -16 -32 16 -60 21 -20 35 -26 43 -20 8 6 21 6 37 0 l24 -9 -29 -24
c-17 -13 -27 -24 -22 -25 4 0 0 -14 -9 -31 l-16 -31 32 18 c17 11 33 29 36 41
4 13 10 23 15 23 16 0 22 -30 12 -53 -15 -34 -6 -48 22 -35 13 6 21 16 19 22
-3 7 4 20 15 30 13 12 19 13 18 4 -2 -66 12 -74 41 -23 12 19 32 37 46 41 29
7 30 8 16 33 -8 16 -4 18 41 15 41 -2 50 1 48 14 -5 52 1 61 43 72 23 7 61 10
85 8 51 -4 58 13 16 37 l-28 15 26 -6 c15 -3 30 -1 33 5 4 6 18 11 32 11 21 0
24 4 24 37 0 40 -19 103 -32 103 -4 0 -8 4 -8 9 0 5 14 11 31 13 22 4 33 0 40
-14 7 -13 17 -17 29 -13 15 5 21 0 26 -19 10 -43 1 -61 -31 -61 -25 0 -32 -5
-40 -32 -5 -18 -15 -33 -22 -33 -7 0 -13 -7 -13 -16 0 -12 7 -15 28 -10 15 3
21 3 15 0 -19 -8 -16 -28 8 -50 17 -15 23 -16 41 -5 12 7 33 14 47 16 l26 3
-28 -23 c-16 -12 -30 -30 -31 -41 -2 -10 -9 -18 -14 -17 -7 2 -9 -4 -5 -13 5
-14 3 -14 -15 -3 -18 12 -19 14 -5 36 13 19 13 23 1 23 -8 0 -19 -5 -26 -12
-9 -9 -12 -7 -12 9 0 11 -7 24 -16 27 -10 4 -14 12 -10 23 6 15 4 14 -14 -2
-21 -19 -27 -30 -11 -20 6 3 15 -4 22 -16 10 -20 9 -21 -10 -16 -18 4 -19 3
-10 -15 6 -11 8 -35 4 -54 -3 -21 -2 -34 5 -34 5 0 10 -5 10 -11 0 -5 -5 -7
-12 -3 -8 5 -9 -8 -4 -50 6 -52 5 -58 -14 -63 -26 -7 -15 -23 16 -23 21 0 23
-3 15 -18 -7 -13 -6 -23 2 -31 9 -10 8 -14 -5 -22 -26 -15 -22 -27 13 -34 23
-5 34 -3 44 12 8 10 15 14 15 9 0 -5 -7 -18 -17 -28 -14 -15 -14 -22 -3 -42 7
-13 10 -30 7 -38 -4 -9 -6 -7 -6 5 -1 22 -12 22 -43 -3 -19 -15 -25 -28 -24
-56 1 -32 5 -39 28 -45 35 -9 46 19 22 56 -15 23 -15 25 1 25 12 0 15 -5 11
-16 -5 -14 0 -15 41 -9 27 4 54 12 62 18 12 10 13 9 8 -6 -4 -10 -7 -23 -7
-28 0 -6 -7 -6 -19 0 -24 13 -64 -26 -51 -49 18 -33 16 -63 -5 -66 -11 -2 -21
-8 -23 -14 -2 -6 -11 -18 -20 -26 -10 -10 -16 -34 -16 -65 -1 -44 1 -48 19
-43 18 4 20 1 18 -28 -1 -18 -5 -45 -9 -60 -3 -15 -3 -36 1 -45 4 -10 8 -37 9
-60 1 -23 5 -45 9 -49 15 -15 6 -24 -18 -18 -22 5 -25 3 -25 -22 0 -22 3 -25
10 -14 14 22 34 -34 31 -91 -1 -20 -8 -28 -30 -35 l-29 -9 24 -18 c15 -11 22
-13 19 -4 -9 21 35 18 77 -5 21 -12 41 -32 44 -45 4 -13 8 -23 10 -23 3 0 18
14 35 31 35 36 65 35 62 -1 -1 -14 0 -20 3 -13 4 8 15 8 40 1 20 -5 38 -7 40
-5 3 2 -11 18 -31 35 -33 29 -48 51 -25 37 6 -4 10 5 10 19 0 17 5 26 16 26
11 0 14 6 10 18 -4 11 1 9 14 -7 11 -13 23 -21 26 -18 4 3 0 12 -7 20 -8 7
-25 37 -38 66 l-25 52 21 20 c17 18 19 27 12 66 -7 37 -6 50 7 64 12 13 14 26
9 46 l-8 28 -9 -32 c-5 -18 -11 -33 -14 -33 -4 0 -3 8 0 17 6 16 6 17 -9 2
-12 -12 -14 -21 -6 -41 5 -14 8 -34 6 -44 -2 -11 -4 -27 -4 -37 -1 -10 -5 -16
-10 -12 -6 3 -13 -1 -18 -9 -6 -11 -13 -12 -23 -6 -12 8 -11 11 8 16 15 4 22
14 22 29 0 13 3 30 6 39 4 11 1 16 -10 16 -9 0 -16 6 -15 13 6 51 -3 61 -68
73 -49 9 -38 14 31 14 64 0 66 1 56 20 -9 17 -8 21 7 26 63 20 86 44 42 44
-19 0 -19 1 -5 16 22 21 20 34 -4 34 -11 0 -20 -4 -20 -10 0 -5 -5 -10 -12
-10 -9 0 -9 3 -1 11 8 8 8 20 3 35 -6 14 -6 24 -1 24 5 0 0 18 -10 40 -11 22
-18 50 -17 63 2 12 -1 23 -7 25 -15 4 -18 -64 -5 -89 10 -17 9 -23 -1 -30 -10
-6 -10 -13 -2 -32 7 -14 8 -29 2 -38 -5 -8 -9 -11 -10 -6 -1 4 -3 12 -4 17 -1
6 -3 19 -4 29 -1 14 -6 18 -22 14 -12 -4 -20 -2 -18 3 3 5 11 21 18 36 8 16
10 34 5 45 -8 18 -11 29 -13 49 0 7 -10 14 -21 17 -21 5 -25 23 -11 46 14 21
44 5 36 -19 -6 -18 -2 -20 34 -20 23 0 41 3 41 6 0 18 -23 43 -50 54 -35 15
-35 13 -14 46 14 21 18 22 28 10 13 -18 66 -39 66 -27 0 21 -13 41 -27 41 -13
0 -13 3 -2 16 8 10 15 12 17 5 3 -8 9 -8 23 0 27 14 10 35 -42 51 -39 11 -48
21 -29 33 17 11 11 61 -11 90 -18 22 -20 29 -8 36 8 5 20 9 27 9 6 0 12 3 13
8 8 74 8 82 -5 82 -8 0 -17 -6 -19 -12 -3 -8 -6 -6 -6 5 -2 31 -18 18 -30 -25
-17 -57 -47 -80 -79 -60 -19 12 -4 39 25 47 22 5 24 9 19 40 -7 34 -6 35 24
29 37 -8 40 8 5 38 -32 28 -31 32 5 55 26 16 28 22 18 36 -7 9 -28 21 -45 26
-31 9 -32 8 -23 -10 14 -25 5 -39 -26 -39 -23 0 -24 2 -11 15 9 8 14 26 13 40
-3 22 0 25 30 25 24 0 34 -5 34 -15 0 -9 9 -15 25 -15 21 0 25 -5 25 -30 0
-22 4 -28 15 -24 37 14 -21 108 -61 98 -10 -2 -25 0 -33 5 -11 7 -10 13 5 36
l18 27 18 -22 c11 -14 18 -17 19 -9 0 8 2 22 4 31 2 10 -2 15 -9 12 -6 -2 -22
9 -34 25 l-22 30 21 12 c13 6 19 7 15 1 -11 -18 42 -52 67 -43 28 11 25 25 -8
29 -32 4 -36 42 -5 42 17 0 19 3 10 19 -14 28 -13 31 15 31 31 0 34 26 4 35
-19 6 -19 7 -3 20 16 11 16 17 6 40 -19 42 10 64 38 29 8 -8 23 -20 34 -26 18
-9 19 -9 10 3 -5 8 -15 26 -22 41 l-11 27 35 -21 34 -20 0 21 c0 18 4 20 24
15 16 -4 27 -1 33 9 7 13 11 13 32 -4 l23 -19 -26 0 c-30 0 -32 -5 -11 -26 13
-14 15 -14 15 1 0 12 6 16 20 12 25 -6 48 19 32 35 -18 18 -14 35 9 41 17 5
20 2 16 -14 -5 -20 1 -23 27 -13 19 7 22 70 4 76 -8 3 -4 10 11 17 19 11 25
11 32 0 13 -20 11 -53 -3 -68 -11 -10 -9 -12 7 -9 16 2 22 15 28 57 8 47 11
52 29 47 16 -4 18 -2 9 7 -18 18 -13 24 19 19 27 -4 29 -2 27 24 -1 21 3 29
17 32 15 3 18 0 13 -20 -5 -20 -2 -27 19 -37 22 -10 25 -9 20 6 -3 10 -7 35
-11 57 -3 21 -8 42 -11 47 -3 5 6 9 20 9 16 0 30 -8 37 -22 7 -13 12 -24 11
-25 -1 -2 -2 -11 -2 -20 0 -14 2 -15 9 -5 7 12 14 11 39 -2 39 -20 59 -20 59
-1 0 8 -6 15 -14 15 -7 0 -13 5 -13 11 0 20 35 4 38 -18 2 -12 13 -24 26 -27
12 -3 28 -16 34 -30 9 -21 8 -25 -11 -30 -15 -4 -27 1 -38 16 l-17 21 -6 -21
c-4 -12 -12 -22 -17 -22 -6 0 -7 5 -3 11 7 12 -15 31 -27 23 -4 -2 -3 -18 3
-34 11 -34 41 -46 88 -36 25 4 30 2 30 -14 0 -26 19 -35 37 -17 21 20 25 68 9
87 -19 21 -30 60 -17 60 5 0 11 -10 13 -22 2 -13 11 -24 20 -26 12 -2 16 1 12
11 -3 8 2 17 10 20 19 7 20 26 5 78 -13 42 -44 59 -52 27 -5 -16 -8 -17 -25
-7 -20 12 -20 13 6 26 14 8 32 11 39 9 7 -3 13 -1 13 5 0 6 7 6 20 -1 26 -14
60 -4 60 18 0 13 -2 13 -15 -4 -14 -19 -14 -19 -15 2 0 26 24 48 45 40 11 -4
15 1 15 20 0 21 3 23 19 14 27 -14 34 -13 27 5 -3 8 -1 15 5 15 6 0 7 5 4 10
-8 13 4 50 16 50 5 0 9 -6 9 -13 0 -14 31 -47 43 -47 4 0 7 8 7 17 0 9 8 26
18 37 16 20 16 20 0 7 -16 -12 -18 -11 -18 7 0 12 9 23 20 27 11 3 20 15 20
26 0 10 4 19 8 19 4 0 6 -16 4 -35 -2 -19 -1 -35 3 -35 3 0 26 12 51 26 49 29
56 53 22 76 -12 8 -18 19 -14 26 5 9 17 5 40 -13 44 -34 66 -33 66 3 l0 27
-20 -25 c-11 -14 -20 -22 -20 -18 0 14 34 78 42 78 13 0 35 -53 31 -75 -4 -20
-3 -20 11 -1 9 10 13 23 9 29 -3 5 7 6 26 2 21 -4 31 -3 31 6 0 6 8 17 17 24
16 12 15 16 -10 54 -25 37 -26 41 -8 41 10 0 24 -7 31 -15 12 -14 47 -14 70 0
23 14 8 -7 -29 -40 -32 -29 -38 -41 -37 -71 1 -21 6 -39 13 -41 16 -6 26 33
14 56 -8 15 -7 20 5 25 23 9 24 8 24 -17 0 -28 40 -70 47 -49 4 10 8 10 19 1
22 -18 17 -27 -18 -31 -37 -3 -55 -38 -20 -38 11 0 25 -7 32 -15 19 -23 -8
-28 -58 -11 -23 8 -42 13 -42 11 0 -2 7 -30 15 -61 11 -43 12 -60 3 -65 -6 -4
-8 -15 -4 -24 3 -9 1 -26 -5 -37 -9 -17 -8 -19 8 -14 17 5 19 2 15 -24 -3 -25
-8 -29 -23 -25 -23 8 -25 -8 -4 -25 11 -9 15 -9 15 -1 0 6 11 16 25 21 18 7
25 17 25 35 0 17 4 24 11 19 6 -3 9 -20 6 -38 -2 -17 -1 -38 4 -47 7 -13 2
-18 -20 -22 -24 -5 -28 -10 -24 -27 4 -14 1 -20 -11 -20 -9 0 -19 -7 -22 -15
-4 -8 -14 -16 -23 -16 -9 -1 -2 -4 14 -8 17 -4 32 -3 35 1 4 4 16 1 28 -8 34
-23 28 -61 -15 -102 l-37 -34 30 6 c19 4 36 1 49 -8 26 -20 36 -20 29 -1 -4 8
-1 15 5 15 6 0 11 -7 11 -16 0 -9 7 -22 15 -28 21 -15 25 -91 5 -91 -8 0 -14
6 -12 14 5 24 -20 41 -59 41 -37 0 -38 0 -29 31 8 26 7 29 -5 19 -8 -7 -15
-26 -15 -42 0 -25 -3 -28 -14 -19 -19 16 -43 4 -48 -24 -4 -17 -1 -22 9 -18
24 9 63 -18 63 -43 0 -13 5 -26 10 -29 17 -11 11 -25 -11 -25 -21 0 -21 0 2
-20 13 -11 17 -18 8 -15 -20 7 -46 -44 -29 -55 13 -8 14 -8 -4 -58 -12 -32
-12 -43 0 -71 8 -18 11 -43 8 -55 -5 -22 -3 -22 50 -18 31 2 56 2 56 1 1 -2 3
-21 6 -41 5 -30 2 -38 -10 -38 -10 0 -16 9 -16 25 0 25 -37 51 -52 36 -11 -10
-21 -62 -12 -59 5 1 20 -2 33 -6 l23 -8 -30 -18 c-32 -20 -52 -63 -23 -53 9 3
22 11 29 16 10 8 10 4 2 -19 -12 -32 -12 -31 2 -57 5 -10 6 -27 2 -39 l-7 -22
-17 22 c-14 17 -23 19 -46 13 l-29 -8 28 -12 c16 -6 34 -11 40 -11 7 0 6 -4
-3 -9 -8 -6 -18 -7 -22 -5 -4 3 -8 0 -8 -6 0 -20 30 -23 73 -6 52 20 57 20 57
2 0 -9 -7 -12 -20 -9 -14 4 -20 0 -20 -11 0 -9 5 -16 11 -16 8 0 8 -5 -1 -15
-7 -8 -17 -12 -23 -8 -17 10 -47 11 -47 1 0 -4 -14 -8 -32 -8 -41 0 -33 -6 16
-14 39 -6 61 -16 37 -16 -7 0 -9 -4 -6 -10 3 -5 15 -10 26 -10 14 0 19 -7 19
-29 0 -17 -5 -33 -10 -36 -6 -4 -8 -10 -5 -15 9 -14 -5 -38 -26 -43 -15 -4
-19 -1 -15 8 2 7 -2 16 -10 19 -14 5 -14 8 0 22 22 22 20 25 -9 12 -19 -9 -25
-19 -25 -44 0 -27 -3 -32 -17 -28 -13 4 -15 3 -5 -4 7 -5 24 -7 38 -4 22 4 24
2 15 -19 -5 -14 -5 -34 0 -47 5 -13 6 -35 3 -49 -6 -22 -10 -24 -40 -18 -27 5
-34 3 -34 -10 0 -9 -4 -13 -10 -10 -17 11 -32 -5 -19 -21 6 -7 15 -11 20 -8 5
3 19 -2 31 -10 22 -16 58 -22 58 -10 0 3 -5 14 -10 25 -10 17 -7 19 20 19 35
0 36 -2 13 -43 -10 -18 -19 -33 -20 -35 0 -2 -9 -5 -20 -6 -10 -2 -19 -13 -21
-24 -3 -18 2 -22 27 -22 23 0 29 -4 25 -15 -4 -10 0 -15 15 -15 12 0 21 -4 21
-10 0 -14 -43 -13 -58 2 -6 6 -15 9 -19 5 -4 -4 -1 -13 5 -19 17 -17 15 -28
-7 -28 -27 0 -48 -27 -32 -43 10 -9 11 -8 6 6 -5 11 -2 17 6 18 98 7 117 5
107 -11 -8 -12 -6 -26 7 -50 16 -31 16 -33 0 -26 -17 6 -17 5 0 -20 16 -24 16
-26 -1 -22 -11 2 -21 15 -24 33 -8 36 -28 75 -39 75 -11 0 16 -102 30 -111 6
-3 -2 -11 -20 -17 -21 -7 -29 -16 -25 -25 5 -15 40 -31 58 -28 12 2 26 -21 20
-31 -3 -4 -16 -3 -30 2 -39 15 -45 12 -40 -17 13 -77 11 -98 -7 -95 -9 2 -17
-2 -17 -8 0 -5 4 -10 10 -10 6 0 5 -10 -2 -26 -14 -31 4 -49 34 -33 22 12 23
25 3 36 -9 5 -11 13 -6 22 7 11 10 9 15 -7 4 -11 16 -22 27 -25 17 -5 19 -9
10 -26 -19 -34 4 -69 43 -66 19 1 32 8 34 19 3 12 16 16 57 16 43 0 55 4 59
18 4 17 17 75 22 100 4 22 -60 6 -76 -19 -3 -4 -12 -4 -20 1 -13 8 -13 11 1
25 9 9 25 17 37 18 25 1 31 37 7 37 -11 0 -14 10 -13 40 1 32 4 38 15 29 12
-10 30 -83 25 -101 -1 -4 7 -6 18 -5 17 1 20 9 20 49 0 34 5 50 15 54 19 8 19
30 0 38 -11 4 -15 -1 -15 -16 0 -21 -1 -21 -16 -6 -19 19 -34 125 -16 114 6
-3 23 -1 38 4 l28 11 -24 13 c-14 7 -24 18 -23 24 1 6 -11 13 -27 17 -25 6
-28 9 -20 25 6 10 10 53 10 96 0 66 2 75 15 64 8 -6 19 -9 25 -5 15 9 12 32
-6 39 -14 5 -14 9 -3 22 11 14 11 18 -3 28 -12 9 -14 16 -6 30 8 14 7 21 -3
27 -10 6 -3 9 21 9 33 1 34 1 16 15 -24 18 -103 20 -109 3 -2 -7 -6 2 -9 20
-6 41 9 49 51 27 27 -14 31 -14 31 0 0 8 -9 15 -20 15 -16 0 -20 9 -26 60 -6
56 -8 60 -33 60 -25 1 -25 1 9 19 22 12 41 16 50 11 12 -6 16 -2 16 21 1 18
-3 29 -12 29 -7 0 -19 9 -27 20 -13 18 -16 19 -27 5 -21 -25 -39 -17 -46 22
-5 28 -3 39 11 49 17 13 12 40 -6 29 -5 -4 -9 1 -9 9 0 10 -6 13 -15 10 -8 -4
-15 -19 -15 -34 0 -16 -5 -32 -10 -35 -15 -9 -24 23 -11 39 9 11 9 15 -1 18
-8 3 -5 16 12 43 24 38 24 38 34 14 14 -33 11 -32 56 -36 22 -2 40 0 40 6 0
23 -13 39 -27 34 -13 -5 -13 -3 -4 15 7 12 10 22 9 22 -2 0 -18 -4 -36 -9 -40
-12 -41 -6 -2 14 17 9 30 24 30 35 0 10 9 21 19 25 17 5 18 9 8 36 -11 27 -9
32 13 49 20 16 22 20 8 20 -10 0 -18 -4 -18 -10 0 -5 -7 -10 -15 -10 -13 0
-14 4 -5 21 13 24 -5 59 -45 85 -33 22 -31 32 8 42 22 6 33 15 35 30 3 20 0
22 -22 16 -24 -6 -26 -3 -26 25 0 36 28 44 37 11 4 -16 11 -19 27 -14 18 6 19
5 9 -8 -14 -16 -8 -28 14 -28 11 0 13 11 9 48 -3 26 -8 56 -11 68 -4 13 0 27
10 38 10 9 14 20 11 24 -4 3 -11 1 -15 -6 -4 -8 -15 -10 -26 -6 -15 6 -17 4
-12 -10 6 -15 3 -17 -15 -12 -13 3 -28 6 -34 6 -7 0 -11 11 -10 25 1 24 16 37
16 14 0 -6 8 -9 18 -7 24 5 23 43 -2 69 -19 22 -19 22 -1 15 11 -5 30 -11 43
-13 34 -8 28 23 -9 42 -34 18 -52 53 -37 73 12 14 -6 40 -37 52 -18 8 -18 9
-2 9 11 1 17 7 14 14 -2 6 2 20 11 29 8 10 15 31 14 48 -1 26 2 29 18 20 27
-14 30 -13 31 13 0 12 3 16 6 9 2 -6 9 -10 14 -6 15 9 10 41 -7 48 -23 9 -24
8 -24 -13 0 -45 -29 -32 -35 14 -2 22 1 24 23 18 23 -5 24 -3 20 21 -3 14 -1
26 3 26 5 0 9 7 9 15 0 8 -9 15 -20 15 -13 0 -24 10 -30 25 -5 14 -20 29 -32
34 -22 8 -22 8 -2 19 18 10 23 8 32 -12 6 -13 24 -28 41 -34 30 -11 31 -10 31
17 0 18 -12 38 -34 60 -19 19 -40 47 -47 62 -6 16 -15 29 -20 29 -21 0 -7 16
16 18 20 1 25 -3 25 -22 0 -13 8 -30 17 -37 14 -12 16 -12 8 0 -5 9 -2 19 10
27 18 13 18 14 -3 32 -16 14 -18 22 -10 30 7 7 8 13 3 13 -6 1 -14 2 -20 4 -5
1 -18 3 -27 3 -23 2 -23 14 1 43 l19 24 -5 -28 c-4 -22 -2 -27 15 -27 29 0 36
17 10 23 -12 4 -19 9 -16 12 4 4 1 21 -6 38 -16 40 -15 59 3 65 9 3 11 0 6 -7
-5 -9 -1 -9 14 1 12 7 21 16 21 19 0 12 60 28 77 22 13 -5 15 -2 10 16 -5 21
-3 23 24 17 16 -3 29 -2 30 2 5 55 14 69 58 95 22 13 31 15 29 5 -4 -17 48
-11 79 9 32 21 29 31 -12 39 -40 7 -42 11 -17 30 25 19 42 17 42 -6 0 -11 7
-21 15 -21 8 -1 20 -3 25 -4 6 -1 15 -3 21 -4 8 -1 8 -6 -1 -16 -10 -13 -9
-15 9 -15 18 0 21 -4 16 -20 -5 -15 0 -21 20 -26 35 -9 39 -2 15 29 -15 19
-18 31 -11 49 9 22 10 22 25 -14 9 -21 16 -43 16 -51 0 -18 -20 -37 -40 -37
-8 0 -20 -11 -27 -25 -10 -23 -9 -25 13 -25 13 0 23 5 22 12 -2 7 13 15 34 18
l38 7 -21 -33 -20 -33 20 -3 c16 -2 18 -7 11 -18 -8 -13 -12 -12 -25 8 -9 12
-23 22 -31 22 -10 0 -5 -13 18 -44 18 -24 39 -43 45 -42 21 3 40 37 35 62 -3
19 0 24 17 24 11 0 21 -6 22 -12 0 -7 2 -24 3 -37 2 -16 -3 -25 -16 -29 -10
-2 -18 -10 -18 -17 0 -8 -8 -11 -20 -8 -15 4 -20 0 -20 -15 0 -11 -6 -22 -14
-25 -15 -6 -27 -65 -15 -73 13 -8 39 26 39 52 0 13 6 24 13 24 10 0 14 -17 14
-60 1 -33 -3 -60 -8 -60 -5 0 -9 -6 -9 -14 0 -16 32 -38 78 -54 l32 -11 0 46
c0 51 6 55 13 8 2 -17 9 -31 15 -31 7 -1 17 -2 23 -3 5 0 7 -6 4 -11 -4 -6
-10 -23 -15 -39 -7 -26 -6 -28 22 -29 27 -1 29 1 23 28 -7 30 9 51 19 25 5
-15 36 -21 36 -7 0 4 -12 16 -27 27 -53 39 -62 50 -69 79 -5 20 -4 27 4 22 14
-9 92 25 111 47 9 11 10 17 2 17 -6 0 -11 5 -11 11 0 7 10 9 25 5 28 -7 30 -1
11 32 -11 20 -14 21 -25 9 -15 -18 -51 -10 -51 11 0 9 -14 31 -32 49 -32 33
-34 49 -4 37 9 -3 16 -14 16 -25 0 -10 8 -23 19 -28 14 -8 23 -5 40 13 27 29
27 32 -8 39 -17 4 -39 19 -52 38 l-23 32 22 15 c12 8 22 21 22 28 0 8 9 14 21
14 12 0 19 5 17 12 -5 13 -60 13 -103 1 -13 -3 -8 4 14 21 24 18 38 23 47 16
8 -7 13 -6 17 4 7 18 -1 26 -27 26 -20 0 -20 0 0 14 17 13 15 13 -18 3 -20 -6
-34 -15 -32 -19 3 -4 -2 -5 -10 -2 -9 3 -16 16 -16 28 0 12 -5 27 -12 34 -9 9
-9 15 -1 23 8 8 17 5 33 -11 25 -25 63 -23 68 4 2 10 0 16 -5 13 -5 -4 -10 -1
-10 6 0 7 -3 22 -7 33 -4 15 -2 23 9 28 12 4 15 -2 15 -29 0 -28 4 -35 20 -35
14 0 21 9 26 35 3 19 9 34 13 33 26 -3 41 5 41 21 0 14 -10 22 -32 26 l-32 8
37 31 c35 29 37 34 37 91 0 34 -5 66 -12 73 -9 9 -8 12 6 12 16 0 16 2 -3 26
-11 15 -19 30 -16 34 3 4 -5 11 -18 15 -19 6 -19 8 -4 12 9 2 17 8 17 13 0 4
-8 11 -17 15 -17 7 -17 8 1 14 17 7 16 8 -7 24 -23 15 -28 15 -41 2 -8 -8 -12
-23 -9 -34 3 -10 0 -22 -6 -25 -6 -4 -11 -2 -11 4 0 7 -5 10 -12 8 -20 -7 -48
30 -48 62 0 25 4 30 25 30 14 0 25 -4 25 -9 0 -4 13 -8 30 -7 33 1 37 8 17 25
-10 8 -17 7 -25 -1 -9 -9 -12 -4 -12 21 0 26 -3 32 -16 27 -10 -4 -27 4 -46
23 l-29 29 50 12 c28 7 51 16 51 22 0 5 12 7 29 3 46 -10 47 18 1 44 -47 26
-82 19 -47 -9 30 -25 12 -46 -25 -30 l-25 12 29 54 c16 30 34 52 39 49 5 -4 9
-2 9 4 0 5 -6 13 -12 18 -30 18 -45 11 -69 -30 -18 -32 -24 -38 -27 -24 -3 14
-10 18 -28 14 -14 -2 -29 2 -36 11 -10 12 -9 14 7 10 11 -2 25 3 32 12 11 13
12 13 13 -2 0 -21 26 -24 33 -4 7 18 -3 56 -14 56 -5 0 -9 4 -9 9 0 5 18 7 40
4 33 -5 40 -3 40 11 0 9 -3 17 -7 17 -5 1 -18 3 -31 4 -34 3 -36 12 -5 20 15
3 36 15 46 26 10 11 31 19 49 19 26 0 29 2 18 15 -7 9 -15 14 -17 11 -2 -2
-24 2 -48 9 l-44 14 -6 -29 c-4 -17 -14 -30 -28 -34 -34 -9 -38 15 -6 45 34
32 39 60 9 52 -14 -4 -20 0 -20 10 0 9 9 19 20 22 11 3 20 13 20 21 0 8 4 14
9 14 5 0 7 -9 4 -20 -3 -11 0 -20 6 -20 6 0 11 14 11 31 0 16 -4 28 -9 25 -5
-3 -11 3 -14 14 -4 15 4 24 32 37 39 19 48 44 18 49 -27 4 -34 14 -17 25 11 8
12 12 3 16 -7 2 -13 12 -13 21 0 13 4 12 23 -6 19 -18 25 -19 40 -7 16 12 14
15 -26 40 -36 23 -46 37 -61 85 -11 34 -15 66 -11 79 6 20 5 22 -13 12 -29
-15 -57 -14 -72 4 -10 12 -10 15 3 15 10 0 15 7 12 20 -2 11 1 20 7 20 5 0 12
-9 15 -20 6 -23 12 -24 47 -11 17 7 23 15 20 28 -4 14 -16 18 -53 19 -27 0
-60 -5 -75 -13z m8 -129 c3 -8 2 -12 -4 -9 -6 3 -10 10 -10 16 0 14 7 11 14
-7z m77 -57 c26 -19 18 -57 -11 -57 -13 0 -29 41 -23 58 6 15 13 15 34 -1z
m-2741 -135 c0 -21 -2 -24 -10 -12 -13 20 -13 53 0 45 6 -3 10 -18 10 -33z
m2745 7 c-10 -15 -25 -10 -19 6 4 8 10 12 15 9 5 -3 7 -10 4 -15z m55 -28 c0
-5 -10 -11 -22 -14 -22 -6 -22 -6 -4 8 23 17 26 18 26 6z m-1020 -38 c0 -17
-19 -35 -29 -29 -18 12 -12 36 9 36 11 0 20 -3 20 -7z m935 -38 c-37 -16 -51
-18 -53 -9 -2 7 -11 15 -20 17 -9 3 -2 6 16 7 17 1 37 4 42 5 6 1 15 3 21 4 5
0 7 6 3 12 -4 7 2 6 17 -2 23 -12 22 -13 -26 -34z m-953 -64 c3 -20 0 -27 -8
-24 -14 5 -26 42 -18 55 9 14 22 0 26 -31z m938 -16 c-17 -25 -32 -45 -34 -45
-2 0 -3 10 -2 23 1 17 -5 23 -26 25 -45 5 -32 18 20 21 26 1 51 6 57 12 20 20
15 7 -15 -36z m-850 -85 c0 -5 -10 -10 -22 -9 -22 0 -22 1 -3 9 11 5 21 9 23
9 1 1 2 -3 2 -9z m-1750 -16 c0 -8 -5 -12 -10 -9 -6 4 -8 11 -5 16 9 14 15 11
15 -7z m-100 -12 c0 -4 -11 -12 -25 -19 -22 -10 -25 -9 -25 8 0 12 5 16 15 13
8 -4 15 -1 15 6 0 6 5 8 10 5 6 -3 10 -9 10 -13z m2687 -14 c-3 -7 -5 -2 -5
12 0 14 2 19 5 13 2 -7 2 -19 0 -25z m-2772 -38 c3 -5 -1 -10 -9 -10 -9 0 -16
5 -16 10 0 6 4 10 9 10 6 0 13 -4 16 -10z m2797 -13 c-11 -12 -25 -33 -29 -45
-9 -24 -9 -24 -37 12 l-27 36 26 -10 c19 -7 25 -6 25 5 0 12 13 18 54 24 5 0
0 -9 -12 -22z m-2682 3 c0 -5 -4 -10 -9 -10 -6 0 -13 5 -16 10 -3 6 1 10 9 10
9 0 16 -4 16 -10z m1749 -139 c-15 -5 -22 6 -14 19 6 9 10 9 16 -1 5 -8 4 -15
-2 -18z m971 -27 c0 -7 -4 -16 -10 -19 -5 -3 -10 -18 -10 -33 l0 -27 -22 32
c-13 18 -29 33 -35 33 -7 0 -13 6 -13 13 0 9 14 14 45 14 30 0 45 -5 45 -13z
m-2783 -47 c-13 -14 -26 -20 -32 -14 -6 5 -3 13 9 23 32 23 48 17 23 -9z
m1893 -113 c0 -2 -6 -4 -12 -4 -16 1 -46 60 -40 78 2 8 14 -3 28 -28 13 -23
24 -44 24 -46z m-50 -9 c0 -19 -42 -37 -52 -22 -11 18 3 37 28 37 15 0 24 -6
24 -15z m856 -20 c-6 -25 -36 -36 -36 -13 0 14 31 50 38 44 2 -3 2 -17 -2 -31z
m54 6 c0 -11 5 -23 10 -26 16 -10 12 -22 -9 -28 -15 -3 -22 2 -29 22 -5 14 -7
32 -5 39 7 19 33 14 33 -7z m-860 -61 c0 -26 -4 -30 -28 -30 -19 0 -29 5 -29
15 0 8 6 15 13 15 6 0 14 7 18 15 10 26 26 16 26 -15z m-85 10 c3 -5 2 -10 -4
-10 -5 0 -13 5 -16 10 -3 6 -2 10 4 10 5 0 13 -4 16 -10z m137 -42 c-9 -9 -12
-4 -11 23 0 32 1 33 11 11 8 -17 8 -26 0 -34z m-1794 -32 c-2 -20 -8 -26 -25
-26 -28 0 -29 9 -6 49 20 34 35 23 31 -23z m2582 0 c0 -11 -19 -15 -25 -6 -3
5 1 10 9 10 9 0 16 -2 16 -4z m149 -26 c2 0 -2 -6 -8 -14 -6 -7 -9 -22 -5 -32
3 -11 2 -15 -3 -8 -4 6 -16 10 -25 9 -11 -2 -20 7 -27 27 l-11 30 38 -6 c20
-3 39 -5 41 -6z m-1057 -40 c-3 -25 -1 -29 12 -24 12 5 16 0 16 -19 0 -20 -5
-25 -25 -23 -16 0 -23 6 -20 14 2 7 -1 21 -7 32 -9 14 -9 22 1 34 20 24 28 19
23 -14z m-1688 -15 c4 -11 -1 -15 -19 -15 -29 0 -42 17 -18 23 30 8 31 8 37
-8z m1809 -2 c-18 -6 -16 -23 4 -45 14 -16 15 -18 0 -18 -17 0 -47 37 -47 58
0 8 6 12 15 9 8 -4 17 -2 21 4 3 6 9 7 13 3 3 -4 0 -9 -6 -11z m-1916 -8 c-2
-5 -14 -8 -27 -7 -12 2 -27 -2 -31 -10 -6 -10 -9 -8 -9 7 0 16 7 20 35 20 19
0 33 -4 32 -10z m2773 -1 c0 -10 -7 -14 -22 -12 -31 4 -33 23 -3 26 17 1 25
-3 25 -14z m110 -39 c0 -8 -4 -15 -10 -15 -5 0 -7 7 -4 15 4 8 8 15 10 15 2 0
4 -7 4 -15z m-2910 -5 c0 -5 -5 -10 -11 -10 -5 0 -7 5 -4 10 3 6 8 10 11 10 2
0 4 -4 4 -10z m1920 -10 c0 -5 -2 -10 -4 -10 -3 0 -8 5 -11 10 -3 6 -1 10 4
10 6 0 11 -4 11 -10z m-1835 -10 c-27 -12 -35 -12 -35 0 0 6 12 10 28 9 24 0
25 -1 7 -9z m1776 -28 c-6 -2 -11 -12 -11 -23 0 -15 -4 -17 -22 -10 -31 11
-34 29 -5 40 14 6 29 16 33 23 6 10 10 8 12 -7 3 -10 -1 -21 -7 -23z m932 11
c-7 -2 -19 -2 -25 0 -7 3 -2 5 12 5 14 0 19 -2 13 -5z m164 -19 c-3 -3 -12 -4
-19 -1 -8 3 -5 6 6 6 11 1 17 -2 13 -5z m-1013 -34 c-19 -38 -27 -42 -56 -31
-12 6 -17 10 -10 10 6 1 12 8 12 17 0 8 4 13 9 9 6 -3 16 1 23 9 24 28 38 19
22 -14z m662 -17 c-10 -10 -19 5 -10 18 6 11 8 11 12 0 2 -7 1 -15 -2 -18z
m-2480 -19 c-4 -9 -2 -22 4 -29 7 -9 6 -16 -4 -24 -11 -10 -17 -6 -29 18 -10
21 -12 32 -4 40 17 17 40 13 33 -5z m2619 6 c3 -6 -1 -7 -9 -4 -18 7 -21 14
-7 14 6 0 13 -4 16 -10z m160 -68 c0 -33 -19 -31 -22 1 -1 18 2 27 10 24 6 -2
12 -13 12 -25z m-2705 4 c0 -2 -7 -6 -15 -10 -8 -3 -15 -1 -15 4 0 6 7 10 15
10 8 0 15 -2 15 -4z m2280 -26 c-5 -17 -9 -34 -9 -38 -1 -4 -5 -7 -11 -6 -5 1
-21 2 -35 3 -31 1 -24 27 11 35 14 4 27 13 30 21 11 28 23 15 14 -15z m67 -47
c-14 -14 -18 -14 -33 -2 -16 13 -15 14 12 20 37 7 42 3 21 -18z m-2398 -13
c-6 -16 -15 -30 -19 -30 -8 0 -23 31 -18 35 4 3 43 24 45 25 1 0 -3 -13 -8
-30z m1951 -6 c15 -39 12 -43 -20 -31 -23 9 -35 9 -49 0 -16 -10 -20 -8 -24
13 -3 17 -1 24 8 20 7 -2 18 1 25 7 10 9 11 9 6 0 -4 -7 -3 -13 2 -13 6 0 12
7 16 15 8 23 25 18 36 -11z m720 16 c-20 -13 -33 -13 -25 0 3 6 14 10 23 10
15 0 15 -2 2 -10z m-139 -29 l22 -18 -26 -5 c-19 -4 -27 -1 -27 8 0 8 -8 14
-17 14 -10 0 -25 5 -33 10 -11 7 -6 10 21 10 21 0 47 -8 60 -19z m-226 -1 c-3
-5 -16 -10 -28 -10 -18 0 -19 2 -7 10 20 13 43 13 35 0z m84 -52 c-11 -40 -11
-40 -37 -22 -24 16 -19 46 7 42 10 -2 15 3 15 15 -2 13 1 15 11 7 10 -8 11
-20 4 -42z m-579 12 c0 -5 -2 -10 -4 -10 -3 0 -8 5 -11 10 -3 6 -1 10 4 10 6
0 11 -4 11 -10z m110 0 c0 -5 -4 -10 -10 -10 -5 0 -10 5 -10 10 0 6 5 10 10
10 6 0 10 -4 10 -10z m298 -19 c-1 -21 -6 -27 -19 -24 -9 3 -19 16 -22 29 -3
20 0 24 20 24 20 0 23 -5 21 -29z m245 12 c-4 -9 -10 -10 -24 -2 -25 13 -24
17 5 15 14 0 22 -6 19 -13z m-413 -39 c0 -17 -6 -24 -19 -24 -11 0 -23 -4 -26
-10 -3 -5 -16 -8 -28 -6 -12 3 -30 5 -39 5 -10 1 -18 7 -18 15 0 11 7 13 28 7
15 -4 34 -6 42 -6 8 1 21 3 29 3 9 2 11 10 7 27 -5 19 -3 23 9 19 8 -4 15 -17
15 -30z m50 -27 c0 -22 -1 -22 -20 3 -25 32 -25 43 0 30 11 -6 20 -21 20 -33z
m-1118 11 c-7 -7 -12 -8 -12 -2 0 14 12 26 19 19 2 -3 -1 -11 -7 -17z m1529
-15 c20 5 20 5 3 -14 -17 -19 -43 -26 -45 -11 0 4 -2 15 -4 25 -3 15 -1 16 11
6 8 -6 23 -9 35 -6z m-491 -33 c0 -11 -7 -20 -15 -20 -18 0 -19 12 -3 28 16
16 18 15 18 -8z m-1000 -5 c0 -8 -7 -15 -15 -15 -16 0 -20 12 -8 23 11 12 23
8 23 -8z m840 5 c0 -5 -4 -10 -10 -10 -5 0 -10 5 -10 10 0 6 5 10 10 10 6 0
10 -4 10 -10z m707 2 c12 -8 29 -62 19 -62 -10 0 -46 44 -46 57 0 15 9 16 27
5z m-2647 -22 c0 -5 -2 -10 -4 -10 -3 0 -8 5 -11 10 -3 6 -1 10 4 10 6 0 11
-4 11 -10z m2200 6 c0 -11 -19 -15 -25 -6 -3 5 1 10 9 10 9 0 16 -2 16 -4z
m-1198 -46 c-2 -22 -8 -37 -13 -34 -12 7 -11 31 1 55 15 27 16 24 12 -21z
m1022 4 c5 -14 4 -15 -9 -4 -17 14 -19 20 -6 20 5 0 12 -7 15 -16z m-1114 -14
c0 -5 -4 -10 -10 -10 -5 0 -10 5 -10 10 0 6 5 10 10 10 6 0 10 -4 10 -10z
m1840 -10 c0 -5 -2 -10 -4 -10 -3 0 -8 5 -11 10 -3 6 -1 10 4 10 6 0 11 -4 11
-10z m-2660 -35 c0 -8 -4 -15 -10 -15 -5 0 -10 7 -10 15 0 8 5 15 10 15 6 0
10 -7 10 -15z m2600 -14 c0 -23 -9 -31 -26 -24 -8 3 -11 10 -7 17 4 6 8 14 9
19 1 4 2 10 3 13 3 13 21 -9 21 -25z m-710 -14 c0 -5 -10 -5 -22 -1 -29 8 -31
10 -24 23 8 12 46 -7 46 -22z m70 28 c0 -2 -10 -10 -22 -16 -21 -11 -22 -11
-9 4 13 16 31 23 31 12z m-929 -37 c11 -11 19 -32 19 -45 0 -19 -5 -23 -27
-23 -20 0 -24 3 -15 9 12 7 11 14 -2 38 -13 27 -13 43 2 43 3 0 13 -10 23 -22z
m599 -40 c0 -5 -7 -8 -15 -8 -15 0 -20 21 -8 33 7 7 23 -11 23 -25z m-130 -3
c0 -8 -6 -12 -14 -9 -8 3 -12 12 -9 20 6 17 23 9 23 -11z m-117 -15 c4 -17 0
-20 -29 -20 -39 0 -40 2 -18 24 21 22 41 20 47 -4z m-1403 3 c0 -5 -5 -15 -10
-23 -8 -12 -10 -11 -10 8 0 12 5 22 10 22 6 0 10 -3 10 -7z m1465 -3 c3 -5 2
-10 -4 -10 -5 0 -13 5 -16 10 -3 6 -2 10 4 10 5 0 13 -4 16 -10z m145 0 c0 -5
-7 -10 -16 -10 -8 0 -12 5 -9 10 3 6 10 10 16 10 5 0 9 -4 9 -10z m1090 -26
c0 -8 5 -12 10 -9 6 3 10 2 10 -3 0 -13 -32 -38 -58 -45 -17 -4 -23 0 -28 19
-8 33 3 42 21 18 11 -15 15 -16 16 -4 1 8 3 20 4 25 2 6 3 14 4 18 2 14 21 -3
21 -19z m-1152 -27 c-1 -1 -14 -11 -27 -22 -14 -11 -22 -15 -18 -9 4 6 11 24
17 40 10 26 12 27 22 11 5 -10 8 -19 6 -20z m337 2 c-11 -17 -35 -9 -35 11 0
18 3 19 20 10 11 -6 18 -15 15 -21z m-782 14 c-7 -2 -19 -2 -25 0 -7 3 -2 5
12 5 14 0 19 -2 13 -5z m367 -12 c0 -19 -19 -31 -48 -31 -11 0 -13 3 -6 8 6 4
13 15 17 25 9 23 37 22 37 -2z m-1559 -48 c-6 -13 -17 -23 -24 -20 -20 6 -20
37 -1 58 16 18 19 18 27 3 6 -10 5 -25 -2 -41z m59 36 c0 -5 -7 -9 -15 -9 -9
0 -12 6 -9 15 6 15 24 11 24 -6z m1033 -36 c-20 -20 -31 -22 -50 -10 -22 14
-14 25 25 34 42 10 51 2 25 -24z m1612 -26 c16 -39 11 -46 -19 -24 -13 9 -16
20 -11 40 9 33 10 32 30 -16z m-2595 1 c0 -25 -3 -29 -10 -18 -13 20 -13 50 0
50 6 0 10 -15 10 -32z m1583 15 c-7 -2 -19 -2 -25 0 -7 3 -2 5 12 5 14 0 19
-2 13 -5z m237 3 c0 -2 -9 -6 -20 -9 -11 -3 -18 -1 -14 4 5 9 34 13 34 5z
m-63 -31 c-4 -8 -14 -15 -23 -15 -16 0 -16 2 1 20 20 22 31 20 22 -5z m893 15
c0 -5 -2 -10 -4 -10 -3 0 -8 5 -11 10 -3 6 -1 10 4 10 6 0 11 -4 11 -10z
m-1492 -27 c18 -4 20 -8 10 -14 -20 -13 -35 -11 -42 6 -6 17 -2 18 32 8z m177
-3 c-3 -5 -14 -10 -23 -9 -14 0 -13 2 3 9 27 11 27 11 20 0z m-225 -53 c0 -5
-7 -6 -16 -3 -9 3 -20 6 -25 6 -5 0 -4 9 3 20 12 19 14 19 26 3 6 -9 12 -21
12 -26z m116 -14 c-9 -29 -42 -45 -56 -28 -10 11 -5 18 21 34 37 22 44 21 35
-6z m-1232 -28 c9 -14 14 -25 10 -25 -7 0 -64 59 -64 66 0 12 39 -18 54 -41z
m-41 -23 c-4 -18 -8 -20 -19 -11 -19 15 -18 27 4 31 22 6 22 6 15 -20z m82
-12 c-3 -5 -12 -10 -18 -10 -7 0 -6 4 3 10 19 12 23 12 15 0z m815 -16 c0 -8
-4 -12 -10 -9 -5 3 -10 10 -10 16 0 5 5 9 10 9 6 0 10 -7 10 -16z m287 -16
c-3 -7 -5 -2 -5 12 0 14 2 19 5 13 2 -7 2 -19 0 -25z m3 -38 c-6 -11 -15 -18
-21 -15 -15 10 -11 23 9 28 9 3 18 5 20 6 1 0 -2 -8 -8 -19z m-305 -20 c15
-28 14 -30 -4 -30 -21 0 -33 22 -25 45 8 21 11 19 29 -15z m95 26 c0 -11 -19
-15 -25 -6 -3 5 1 10 9 10 9 0 16 -2 16 -4z m850 -6 c0 -5 -2 -10 -4 -10 -3 0
-8 5 -11 10 -3 6 -1 10 4 10 6 0 11 -4 11 -10z m-1017 -55 c32 -41 30 -42 -24
-15 -33 17 -37 23 -27 35 18 20 20 19 51 -20z m-803 15 c0 -5 -7 -10 -15 -10
-8 0 -15 5 -15 10 0 6 7 10 15 10 8 0 15 -4 15 -10z m1760 -14 c9 -12 8 -15
-9 -13 -12 1 -21 7 -21 14 0 17 15 16 30 -1z m167 -6 c1 -11 -2 -22 -8 -25
-10 -7 -13 28 -2 38 9 9 9 10 10 -13z m-1212 -10 c3 -5 1 -10 -4 -10 -6 0 -11
5 -11 10 0 6 2 10 4 10 3 0 8 -4 11 -10z m1092 -22 c-3 -8 -6 -5 -6 6 -1 11 2
17 5 13 3 -3 4 -12 1 -19z m-1862 2 c3 -5 1 -10 -4 -10 -6 0 -11 5 -11 10 0 6
2 10 4 10 3 0 8 -4 11 -10z m1933 1 c10 -6 5 -13 -19 -29 -19 -11 -35 -19 -37
-18 -1 2 2 15 7 30 11 27 26 32 49 17z m-1118 -30 c0 -14 -6 -17 -25 -13 -14
2 -25 9 -25 14 0 5 4 7 9 3 5 -3 12 -1 16 5 10 16 25 11 25 -9z m-190 -26 c0
-8 -7 -15 -15 -15 -9 0 -12 6 -9 15 4 8 10 15 15 15 5 0 9 -7 9 -15z m87 -44
c-2 -12 -6 -10 -16 7 -7 13 -9 31 -6 40 6 14 9 13 16 -7 6 -14 8 -32 6 -40z
m203 44 c0 -8 -2 -15 -4 -15 -2 0 -6 7 -10 15 -3 8 -1 15 4 15 6 0 10 -7 10
-15z m75 -15 c-3 -5 -14 -10 -23 -10 -15 0 -15 2 -2 10 20 13 33 13 25 0z m63
-28 c13 -20 13 -22 -8 -22 -17 0 -21 4 -17 20 3 10 1 21 -4 24 -5 2 -4 3 2 2
7 -1 19 -12 27 -24z m-438 -10 c0 -10 -22 -32 -32 -32 -5 0 -3 9 4 20 13 20
28 27 28 12z m1286 -7 c-3 -20 -13 -28 -26 -20 -8 5 -8 11 1 21 15 18 28 18
25 -1z m67 -19 c3 -8 0 -17 -8 -19 -11 -5 -13 6 -6 31 2 6 9 0 14 -12z m-53
-26 c0 -5 -2 -10 -4 -10 -3 0 -8 5 -11 10 -3 6 -1 10 4 10 6 0 11 -4 11 -10z
m-1515 -70 c-3 -6 -13 -10 -21 -10 -15 0 -18 18 -8 45 6 14 8 13 21 -5 8 -11
11 -25 8 -30z m-261 -4 c-7 -19 -25 -22 -21 -3 2 12 19 28 24 23 2 -2 1 -11
-3 -20z m1769 10 c26 6 27 4 27 -30 0 -29 -4 -36 -20 -36 -14 0 -20 -7 -20
-22 0 -27 -13 -15 -15 15 -2 12 -6 38 -10 57 -4 22 -3 30 3 22 6 -9 18 -11 35
-6z m-1313 -16 c0 -5 -12 -10 -27 -12 -20 -2 -29 -9 -31 -25 -4 -28 -8 -28
-56 2 l-39 24 27 7 c15 3 45 7 67 8 21 0 39 4 39 9 0 4 5 5 10 2 6 -3 10 -10
10 -15z m-536 -3 c-3 -9 9 -17 33 -24 l38 -10 -47 -2 c-38 -1 -46 2 -42 14 4
8 1 15 -5 15 -6 0 -11 5 -11 10 0 6 9 10 20 10 12 0 17 -5 14 -13z m256 -56
c0 -18 -18 -41 -32 -41 -5 0 -1 11 8 25 8 13 12 30 8 36 -4 8 -3 9 4 5 7 -4
12 -15 12 -25z m130 12 c0 -12 -33 -43 -46 -43 -26 0 -24 19 3 34 31 17 43 19
43 9z m1535 -24 c4 -11 4 -24 0 -27 -9 -9 -36 28 -29 39 9 15 22 10 29 -12z
m-1871 -44 c6 -16 -28 -35 -60 -35 -14 0 -13 2 0 16 9 8 16 20 16 25 0 15 37
10 44 -6z m-94 -10 c-9 -10 -9 -15 -1 -15 6 0 11 -4 11 -9 0 -5 -9 -7 -20 -4
-31 8 -25 43 8 43 12 0 12 -3 2 -15z m150 -82 c-1 -24 -2 -26 -11 -10 -6 9
-14 15 -20 12 -5 -4 -9 -2 -9 4 0 9 15 18 33 20 4 1 7 -11 7 -26z m1684 -29
c3 -8 2 -12 -4 -9 -6 3 -10 10 -10 16 0 14 7 11 14 -7z m32 -95 c-30 -8 -31
-3 -10 28 l18 28 6 -25 c5 -20 2 -26 -14 -31z m174 11 c12 -8 11 -10 -7 -10
-13 0 -23 5 -23 10 0 13 11 13 30 0z m-2020 -35 c-11 -13 -10 -19 5 -35 19
-21 21 -19 -30 -35 -12 -3 -14 1 -9 20 3 14 3 25 -1 25 -12 0 -50 -23 -60 -38
-9 -11 -13 -9 -23 12 -10 23 -9 25 26 37 20 6 48 20 62 30 29 20 51 9 30 -16z
m-170 -58 c0 -5 -4 -5 -10 -2 -5 3 -10 14 -10 23 0 15 2 15 10 2 5 -8 10 -19
10 -23z m260 2 c0 -5 -4 -9 -10 -9 -5 0 -10 7 -10 16 0 8 5 12 10 9 6 -3 10
-10 10 -16z m1797 -25 c18 -24 6 -35 -24 -23 -15 5 -32 8 -40 5 -8 -3 -13 2
-13 13 0 33 54 36 77 5z m-2046 -77 c-10 -9 -11 -8 -5 6 3 10 9 15 12 12 3 -3
0 -11 -7 -18z m1994 13 c3 -5 -3 -10 -14 -10 -12 0 -21 -6 -21 -13 0 -7 -9
-18 -21 -25 -12 -8 -19 -10 -17 -5 26 52 34 63 49 63 10 0 21 -4 24 -10z
m-2030 -10 c3 -5 -1 -10 -9 -10 -9 0 -16 5 -16 10 0 6 4 10 9 10 6 0 13 -4 16
-10z m145 -30 c-8 -6 -23 -15 -33 -21 -17 -9 -17 -8 -7 10 6 12 21 21 33 21
18 0 19 -2 7 -10z m2020 -39 c0 -2 -3 -1 -7 2 -3 4 -15 0 -25 -10 -14 -13 -18
-13 -19 -2 0 8 -2 24 -3 36 l-3 21 29 -21 c15 -11 28 -23 28 -26z m-2212 -16
c-12 -27 -11 -27 -50 -29 -37 -2 -35 4 10 36 43 30 56 28 40 -7z m-145 -47
c-2 -4 -12 -5 -22 -3 -11 2 -22 -3 -26 -13 -5 -13 -10 -10 -21 17 -19 45 -18
49 14 53 20 2 31 -3 43 -22 9 -14 15 -28 12 -32z m444 47 c2 -6 -6 -16 -17
-23 -18 -11 -20 -10 -20 14 0 18 5 25 17 22 9 -2 18 -8 20 -13z m-334 -90 c-3
-9 -8 -14 -10 -11 -3 3 -2 9 2 15 9 16 15 13 8 -4z m-219 -31 c19 -10 37 -26
39 -36 4 -16 3 -17 -9 -7 -8 6 -25 9 -39 7 -25 -5 -37 3 -48 35 -8 22 11 22
57 1z m156 9 c-1 -26 -17 -33 -51 -21 l-34 12 30 7 c43 10 55 10 55 2z m385
-183 c-28 -12 -65 -12 -65 0 0 6 19 10 43 9 32 0 37 -2 22 -9z m145 -27 c-1
-5 -7 -19 -15 -33 -19 -34 -18 -40 6 -40 29 0 19 -22 -14 -31 -25 -7 -27 -5
-27 26 0 42 19 85 37 85 7 0 13 -3 13 -7z m-199 -26 c-1 -12 -15 -9 -19 4 -3
6 1 10 8 8 6 -3 11 -8 11 -12z m1963 -36 c3 -5 -1 -14 -9 -21 -12 -10 -16 -8
-25 15 -5 14 -10 28 -10 31 0 7 38 -14 44 -25z m-1874 -16 c0 -25 0 -25 -27
-8 l-26 17 24 7 c13 4 25 7 27 8 1 1 2 -10 2 -24z m40 -66 c0 -6 -4 -7 -10 -4
-5 3 -10 -2 -10 -12 0 -29 -23 -73 -38 -73 -7 0 -10 5 -6 11 3 6 0 15 -7 20
-11 7 -10 9 4 9 10 0 24 15 34 35 15 31 33 39 33 14z m1850 -54 c0 -8 -7 -15
-16 -15 -14 0 -14 3 -4 15 7 8 14 15 16 15 2 0 4 -7 4 -15z m-56 -41 c23 -9
20 -24 -4 -24 -11 0 -20 7 -20 15 0 17 2 18 24 9z m-1808 -110 c11 4 14 -5 14
-39 0 -49 -2 -50 -31 -35 -14 8 -19 21 -19 54 0 46 13 72 18 36 2 -14 9 -20
18 -16z m62 -4 c3 -23 0 -31 -10 -27 -7 2 -12 10 -10 17 2 7 -5 21 -14 31 -17
19 -16 19 7 16 19 -3 25 -11 27 -37z m1824 -12 c-8 -8 -9 -4 -5 13 4 13 8 18
11 10 2 -7 -1 -18 -6 -23z m-180 -14 c-7 -12 -11 -13 -17 -4 -4 7 -2 16 6 21
18 11 23 4 11 -17z m-1765 -123 c-1 -46 -5 -57 -14 -49 -7 6 -11 21 -9 34 3
12 0 24 -5 26 -8 3 16 48 26 48 3 0 3 -27 2 -59z m93 -18 c0 -25 -12 -39 -38
-47 l-22 -7 17 35 c18 38 43 48 43 19z m1860 3 c0 -8 -31 -36 -41 -36 -5 0 -4
9 3 20 11 17 38 28 38 16z m-133 -93 c-3 -3 -11 -2 -17 2 -8 5 -7 11 2 22 12
15 13 14 16 -1 2 -10 1 -20 -1 -23z m113 -10 c0 -10 -20 -40 -20 -31 0 3 -3
13 -6 22 -4 11 -1 16 10 16 9 0 16 -3 16 -7z m-1934 -60 c-17 -31 -19 -23 -10
27 6 26 9 29 16 16 6 -10 4 -25 -6 -43z m1960 1 c-3 -9 -6 -22 -6 -30 0 -21
-18 -17 -25 6 -8 24 1 40 22 40 10 0 13 -6 9 -16z m-1921 -54 c4 -6 -7 -10
-25 -10 -18 0 -29 4 -25 10 3 6 15 10 25 10 10 0 22 -4 25 -10z m1935 -80 c0
-11 -2 -20 -4 -20 -2 0 -6 9 -9 20 -3 11 -1 20 4 20 5 0 9 -9 9 -20z m-1936
-5 c3 -9 0 -15 -9 -15 -9 0 -12 6 -9 15 4 8 7 15 9 15 2 0 5 -7 9 -15z m1851
6 c3 -5 1 -12 -5 -16 -5 -3 -10 1 -10 9 0 18 6 21 15 7z m25 -56 c0 -8 -4 -15
-10 -15 -5 0 -7 7 -4 15 4 8 8 15 10 15 2 0 4 -7 4 -15z m-120 -55 c0 -5 -2
-10 -4 -10 -3 0 -8 5 -11 10 -3 6 -1 10 4 10 6 0 11 -4 11 -10z m50 -11 c0
-18 -2 -19 -15 -9 -8 7 -15 16 -15 21 0 5 7 9 15 9 9 0 15 -9 15 -21z m-50
-24 c0 -9 -6 -12 -16 -8 -13 5 -13 7 -2 14 17 11 18 11 18 -6z"/>
<path d="M2496 4721 c-7 -11 22 -23 35 -15 5 3 9 9 9 15 0 12 -37 12 -44 0z"/>
<path d="M840 4701 c0 -5 7 -11 14 -14 10 -4 13 -1 9 9 -6 15 -23 19 -23 5z"/>
<path d="M610 4643 c-15 -19 -17 -28 -9 -34 22 -13 52 6 53 34 2 34 -17 34
-44 0z"/>
<path d="M3286 4653 c-6 -14 -5 -15 5 -6 7 7 10 15 7 18 -3 3 -9 -2 -12 -12z"/>
<path d="M2460 4645 c0 -8 7 -15 15 -15 8 0 15 7 15 15 0 8 -7 15 -15 15 -8 0
-15 -7 -15 -15z"/>
<path d="M2690 4640 c-8 -5 -25 -10 -38 -10 -15 0 -22 -5 -19 -12 2 -7 1 -20
-4 -29 -4 -8 -4 -21 1 -29 7 -12 13 -12 34 0 23 12 25 15 11 30 -20 22 -19 30
4 30 10 0 24 7 31 15 14 17 3 20 -20 5z"/>
<path d="M2510 4620 c0 -9 31 -30 44 -30 3 0 6 9 6 20 0 15 -7 20 -25 20 -14
0 -25 -4 -25 -10z"/>
<path d="M2835 4610 c-3 -5 -1 -10 4 -10 6 0 11 5 11 10 0 6 -2 10 -4 10 -3 0
-8 -4 -11 -10z"/>
<path d="M3667 4603 c-4 -3 -7 -11 -7 -17 0 -6 5 -5 12 2 6 6 9 14 7 17 -3 3
-9 2 -12 -2z"/>
<path d="M2670 4534 c0 -17 22 -14 28 4 2 7 -3 12 -12 12 -9 0 -16 -7 -16 -16z"/>
<path d="M2510 4520 c0 -11 5 -20 10 -20 6 0 10 9 10 20 0 11 -4 20 -10 20 -5
0 -10 -9 -10 -20z"/>
<path d="M548 4513 c7 -3 16 -2 19 1 4 3 -2 6 -13 5 -11 0 -14 -3 -6 -6z"/>
<path d="M3336 4483 c-9 -9 -7 -33 3 -33 12 0 22 28 12 34 -5 3 -11 3 -15 -1z"/>
<path d="M2490 4465 c0 -9 5 -15 11 -13 6 2 11 8 11 13 0 5 -5 11 -11 13 -6 2
-11 -4 -11 -13z"/>
<path d="M1633 4454 c-7 -19 11 -39 26 -30 16 10 13 33 -4 40 -9 3 -18 -1 -22
-10z"/>
<path d="M672 4438 c3 -24 28 -34 56 -23 14 5 14 7 2 15 -8 5 -18 6 -22 4 -4
-3 -8 2 -8 10 0 9 -7 16 -16 16 -10 0 -14 -7 -12 -22z"/>
<path d="M1580 4450 c0 -5 7 -10 15 -10 8 0 15 5 15 10 0 6 -7 10 -15 10 -8 0
-15 -4 -15 -10z"/>
<path d="M1540 4431 c0 -6 5 -13 10 -16 6 -3 10 1 10 9 0 9 -4 16 -10 16 -5 0
-10 -4 -10 -9z"/>
<path d="M1854 4428 c-7 -11 14 -38 30 -38 6 0 17 9 23 19 11 17 8 19 -18 23
-16 3 -32 1 -35 -4z"/>
<path d="M597 4413 c-6 -12 -1 -62 6 -70 4 -3 7 2 8 13 0 10 3 13 6 7 2 -7 10
-13 18 -13 9 0 9 8 -4 35 -16 34 -26 42 -34 28z"/>
<path d="M1930 4370 c0 -11 7 -20 15 -20 17 0 18 2 9 24 -9 23 -24 20 -24 -4z"/>
<path d="M922 4368 c-16 -16 -15 -28 2 -28 7 0 16 9 19 20 6 23 -3 26 -21 8z"/>
<path d="M2800 4369 c0 -5 5 -7 10 -4 6 3 10 8 10 11 0 2 -4 4 -10 4 -5 0 -10
-5 -10 -11z"/>
<path d="M966 4347 c3 -10 9 -15 12 -12 3 3 0 11 -7 18 -10 9 -11 8 -5 -6z"/>
<path d="M3705 4270 c-3 -5 1 -10 9 -10 8 0 18 5 21 10 3 6 -1 10 -9 10 -8 0
-18 -4 -21 -10z"/>
<path d="M3636 4233 c-11 -11 -6 -23 9 -23 8 0 15 4 15 9 0 13 -16 22 -24 14z"/>
<path d="M3675 4230 c3 -5 13 -10 21 -10 8 0 12 5 9 10 -3 6 -13 10 -21 10 -8
0 -12 -4 -9 -10z"/>
<path d="M630 4155 c0 -8 5 -15 10 -15 6 0 10 7 10 15 0 8 -4 15 -10 15 -5 0
-10 -7 -10 -15z"/>
<path d="M997 4147 c-11 -29 -9 -43 4 -30 6 6 9 19 7 29 -3 18 -4 18 -11 1z"/>
<path d="M2517 4113 c-18 -5 -18 -6 -1 -24 21 -23 34 -24 34 -3 0 9 5 12 11 8
7 -4 10 -1 7 7 -5 15 -23 20 -51 12z"/>
<path d="M970 4061 c-10 -19 -10 -25 1 -32 20 -12 31 4 21 31 l-9 24 -13 -23z"/>
<path d="M3706 4064 c-4 -9 -4 -19 -1 -22 2 -3 7 3 11 12 4 9 4 19 1 22 -2 3
-7 -3 -11 -12z"/>
<path d="M630 4036 c0 -8 7 -16 15 -20 17 -6 18 -4 9 18 -8 20 -24 21 -24 2z"/>
<path d="M1740 4022 c-18 -14 -20 -21 -11 -44 8 -21 7 -28 -5 -32 -8 -3 -17 1
-20 9 -4 8 -17 15 -30 15 -22 0 -23 -2 -14 -21 7 -13 17 -18 27 -15 9 4 24 -2
35 -14 25 -27 52 -27 43 0 -4 13 1 34 15 56 16 28 18 39 9 50 -15 18 -22 18
-49 -4z"/>
<path d="M2480 4000 c0 -5 5 -10 11 -10 5 0 7 5 4 10 -3 6 -8 10 -11 10 -2 0
-4 -4 -4 -10z"/>
<path d="M2760 3920 c0 -28 2 -30 21 -20 24 13 22 43 -4 48 -13 3 -17 -3 -17
-28z"/>
<path d="M3317 3943 c-11 -11 -8 -20 8 -20 8 0 15 6 15 14 0 14 -12 17 -23 6z"/>
<path d="M4451 3925 c-23 -21 -38 -75 -20 -75 5 0 9 -14 9 -31 0 -28 -3 -31
-22 -25 -13 3 -26 6 -30 6 -17 0 -7 20 9 20 14 0 13 3 -6 16 -15 11 -21 23
-18 35 3 12 0 19 -9 19 -8 0 -14 -6 -14 -14 0 -8 -6 -16 -14 -19 -9 -4 -12
-14 -9 -26 4 -17 -1 -23 -26 -32 -31 -11 -41 -32 -21 -44 13 -8 3 -25 -14 -25
-9 0 -12 9 -8 25 2 14 0 25 -6 25 -26 0 -42 -14 -42 -36 0 -27 -15 -32 -24 -8
-11 28 -7 42 11 40 25 -2 28 35 8 75 -12 22 -19 28 -25 19 -4 -7 0 -20 11 -31
11 -11 19 -25 19 -33 0 -17 -35 -27 -48 -14 -6 6 -15 3 -25 -6 -16 -16 -34 -5
-23 13 4 5 0 11 -6 14 -26 8 -46 -5 -55 -36 -7 -26 -14 -31 -32 -29 -20 3 -21
1 -11 -17 11 -22 30 -28 30 -10 0 5 5 7 10 4 6 -4 -5 -22 -25 -42 -33 -33 -45
-66 -27 -77 5 -3 18 3 30 14 20 19 20 19 26 -6 6 -21 10 -24 21 -14 11 9 20 8
39 -7 14 -10 28 -26 31 -35 10 -30 65 -19 65 12 0 27 48 30 83 6 15 -11 27
-26 27 -33 0 -7 6 -10 15 -7 9 4 15 0 15 -10 0 -9 4 -16 9 -16 17 0 31 28 27
51 -3 13 -5 29 -5 36 -1 7 -11 10 -26 7 -14 -2 -25 -1 -25 4 0 4 -17 6 -37 4
-22 -3 -34 -1 -30 4 5 5 27 9 50 10 23 1 63 5 90 9 50 8 57 2 31 -26 -23 -26
-30 -92 -11 -108 14 -11 17 -8 25 21 5 18 5 34 1 36 -4 2 0 16 9 31 10 18 13
34 7 47 -14 33 -11 49 11 52 16 2 21 9 18 25 -2 12 1 9 7 -8 7 -16 20 -36 31
-43 10 -7 18 -21 19 -30 0 -10 3 -12 6 -4 2 6 12 12 21 12 15 0 15 1 0 17 -16
15 -15 18 7 45 13 16 22 35 19 43 -5 12 3 15 39 15 47 0 71 -14 38 -23 -12 -3
-18 -14 -19 -36 0 -18 -7 -40 -14 -49 -10 -12 -6 -12 20 3 17 11 32 24 32 29
0 5 6 2 13 -8 9 -12 23 -17 42 -14 24 2 31 8 33 31 3 26 6 28 38 23 30 -5 34
-3 34 16 0 17 -3 19 -12 10 -7 -7 -22 -12 -35 -12 -18 0 -23 5 -23 28 0 38 12
53 27 36 8 -8 9 -15 3 -19 -6 -4 -8 -10 -5 -15 6 -10 45 -1 45 11 0 5 7 9 16
9 9 0 12 -5 8 -12 -5 -9 -2 -9 9 1 23 19 21 28 -8 35 -16 4 -25 13 -25 26 0
15 -7 20 -26 20 -19 0 -25 4 -20 15 9 25 -4 45 -45 65 -48 25 -49 25 -49 -4 0
-31 -46 -42 -75 -18 -19 17 -19 17 -2 -11 16 -25 16 -28 2 -34 -11 -3 -29 6
-51 28 -19 18 -34 29 -34 23 -1 -12 -70 -89 -70 -77 0 4 8 31 18 58 l18 50
-25 0 c-14 0 -36 -9 -50 -20z m322 -37 c8 -29 -14 -43 -30 -21 -19 24 -16 43
6 43 11 0 21 -9 24 -22z m-39 -73 c3 -9 0 -15 -9 -15 -8 0 -15 7 -15 15 0 8 4
15 9 15 5 0 11 -7 15 -15z m-84 -5 c0 -5 -2 -10 -4 -10 -3 0 -8 5 -11 10 -3 6
-1 10 4 10 6 0 11 -4 11 -10z m-281 -32 c9 -28 9 -30 -2 -16 -16 20 -43 8 -34
-16 5 -11 1 -16 -14 -16 -20 0 -20 0 2 40 13 22 26 40 30 40 4 0 12 -15 18
-32z m-239 -22 c0 -3 -4 -8 -10 -11 -5 -3 -10 -1 -10 4 0 6 5 11 10 11 6 0 10
-2 10 -4z m620 -46 c0 -5 -2 -10 -4 -10 -3 0 -8 5 -11 10 -3 6 -1 10 4 10 6 0
11 -4 11 -10z"/>
<path d="M682 3872 c-30 -30 -28 -42 8 -42 31 0 35 9 21 44 -7 19 -8 19 -29
-2z"/>
<path d="M1642 3868 c-16 -16 -15 -28 3 -28 8 0 15 9 15 20 0 23 -2 24 -18 8z"/>
<path d="M1715 3869 c-4 -6 -4 -13 -1 -16 8 -8 36 5 36 17 0 13 -27 13 -35 -1z"/>
<path d="M4286 3865 c4 -8 11 -15 16 -15 6 0 5 6 -2 15 -7 8 -14 15 -16 15 -2
0 -1 -7 2 -15z"/>
<path d="M2835 3840 c-4 -6 -2 -17 4 -23 15 -15 25 -2 13 19 -7 12 -11 13 -17
4z"/>
<path d="M3901 3824 c0 -11 3 -14 6 -6 3 7 2 16 -1 19 -3 4 -6 -2 -5 -13z"/>
<path d="M3962 3813 c-52 -18 -71 -28 -63 -36 13 -13 124 -9 136 5 9 10 14 47
8 51 -4 2 -41 -7 -81 -20z"/>
<path d="M2550 3820 c0 -5 9 -10 21 -10 11 0 17 5 14 10 -3 6 -13 10 -21 10
-8 0 -14 -4 -14 -10z"/>
<path d="M3681 3814 c0 -11 3 -14 6 -6 3 7 2 16 -1 19 -3 4 -6 -2 -5 -13z"/>
<path d="M1971 3811 c-11 -7 -10 -11 7 -20 28 -15 31 -14 28 6 -3 20 -16 26
-35 14z"/>
<path d="M1008 3780 c2 -16 8 -30 13 -30 10 0 12 21 3 44 -10 27 -21 18 -16
-14z"/>
<path d="M2517 3803 c-3 -5 -1 -17 3 -28 6 -17 7 -16 12 8 5 25 -5 37 -15 20z"/>
<path d="M1714 3774 c3 -9 6 -19 6 -22 0 -9 20 21 20 31 0 4 -7 7 -16 7 -11 0
-14 -5 -10 -16z"/>
<path d="M2850 3765 c-11 -13 -10 -14 4 -9 9 3 16 10 16 15 0 13 -6 11 -20 -6z"/>
<path d="M3845 3760 c-3 -5 -1 -10 4 -10 6 0 11 5 11 10 0 6 -2 10 -4 10 -3 0
-8 -4 -11 -10z"/>
<path d="M1680 3743 c0 -11 21 -33 31 -33 4 0 6 8 5 18 -3 17 -36 31 -36 15z"/>
<path d="M1040 3730 c0 -5 5 -10 11 -10 5 0 7 5 4 10 -3 6 -8 10 -11 10 -2 0
-4 -4 -4 -10z"/>
<path d="M3923 3725 c-13 -9 -20 -22 -16 -30 7 -19 -23 -65 -42 -65 -8 0 -20
9 -27 20 -7 11 -20 20 -28 20 -9 0 -21 5 -28 12 -9 9 -12 9 -12 0 0 -7 7 -15
15 -18 9 -4 14 -14 13 -23 -2 -10 3 -15 15 -13 13 2 17 -4 17 -24 0 -15 -8
-33 -17 -41 -14 -10 -14 -13 -3 -11 11 2 14 -5 13 -24 -2 -24 2 -28 22 -28 29
0 30 -3 11 -33 -23 -35 -24 -80 -3 -83 9 -1 24 5 33 14 15 14 15 17 -1 29 -17
11 -17 13 -2 19 10 3 17 17 17 31 0 25 1 25 25 9 14 -9 25 -13 26 -9 0 5 2 17
4 29 3 15 -3 24 -18 32 -17 8 -7 9 43 5 36 -3 66 -6 67 -6 1 -1 5 -16 8 -32 7
-28 6 -29 -7 -11 -10 12 -21 17 -32 13 -15 -6 -16 -9 -3 -22 9 -8 17 -20 19
-26 8 -23 46 8 46 37 0 14 6 30 13 35 22 14 -46 67 -78 61 -16 -3 -32 3 -49
18 -31 30 -30 44 2 65 21 13 24 19 13 26 -11 6 -10 9 4 15 9 3 14 10 11 15 -8
14 -47 11 -71 -6z m23 -140 c-3 -11 -36 -8 -50 5 -4 5 -5 13 -2 18 8 13 57 -9
52 -23z"/>
<path d="M4606 3713 c-10 -21 -11 -30 -3 -30 7 0 20 -4 30 -8 21 -9 23 21 2
48 -13 18 -14 17 -29 -10z"/>
<path d="M3840 3715 c0 -9 6 -12 15 -9 8 4 15 10 15 15 0 5 -7 9 -15 9 -8 0
-15 -7 -15 -15z"/>
<path d="M3785 3710 c3 -5 11 -10 16 -10 6 0 7 5 4 10 -3 6 -11 10 -16 10 -6
0 -7 -4 -4 -10z"/>
<path d="M3860 3690 c-12 -7 -12 -12 -3 -21 15 -15 26 -7 21 15 -2 11 -7 13
-18 6z"/>
<path d="M675 3640 c-8 -12 20 -24 35 -15 6 3 8 11 5 16 -8 12 -32 12 -40 -1z"/>
<path d="M1724 3632 c-6 -4 -14 -20 -18 -36 -7 -29 -7 -29 16 -14 13 8 24 25
26 37 3 22 -5 26 -24 13z"/>
<path d="M3371 3596 c-9 -10 -8 -15 4 -20 10 -4 15 1 15 14 0 24 -4 25 -19 6z"/>
<path d="M1991 3586 c-7 -8 -19 -12 -27 -9 -25 9 -60 -108 -38 -130 3 -3 26 4
50 16 40 19 42 22 29 38 -24 25 -27 60 -7 75 9 7 14 15 11 18 -3 4 -12 0 -18
-8z"/>
<path d="M2023 3565 c0 -8 4 -12 9 -9 4 3 8 9 8 15 0 5 -4 9 -8 9 -5 0 -9 -7
-9 -15z"/>
<path d="M4470 3570 c0 -13 11 -13 30 0 12 8 11 10 -7 10 -13 0 -23 -4 -23
-10z"/>
<path d="M1027 3541 c4 -14 10 -18 23 -13 27 10 25 25 -4 29 -20 3 -23 0 -19
-16z"/>
<path d="M1735 3550 c3 -5 11 -10 16 -10 6 0 7 5 4 10 -3 6 -11 10 -16 10 -6
0 -7 -4 -4 -10z"/>
<path d="M1770 3540 c0 -13 18 -22 24 -11 3 5 -1 11 -9 15 -8 3 -15 1 -15 -4z"/>
<path d="M700 3529 c0 -5 5 -7 10 -4 6 3 10 8 10 11 0 2 -4 4 -10 4 -5 0 -10
-5 -10 -11z"/>
<path d="M1721 3514 c0 -11 3 -14 6 -6 3 7 2 16 -1 19 -3 4 -6 -2 -5 -13z"/>
<path d="M2516 3515 c4 -8 12 -15 20 -15 8 0 11 6 8 15 -4 8 -12 15 -20 15 -8
0 -11 -6 -8 -15z"/>
<path d="M4215 3510 c-3 -5 1 -10 9 -10 9 0 16 5 16 10 0 6 -4 10 -9 10 -6 0
-13 -4 -16 -10z"/>
<path d="M703 3493 c-18 -7 -16 -23 2 -23 8 0 15 7 15 15 0 8 -1 15 -2 14 -2
0 -9 -3 -15 -6z"/>
<path d="M1762 3482 c5 -17 2 -22 -13 -22 -10 0 -19 -6 -19 -14 0 -8 -3 -21
-6 -30 -4 -11 -1 -16 10 -16 9 0 16 7 16 16 0 9 6 14 13 11 6 -2 11 -11 11
-19 -1 -10 6 -13 23 -10 19 3 21 7 12 18 -6 8 -9 22 -7 32 3 11 -5 25 -20 36
-25 19 -25 19 -20 -2z"/>
<path d="M4120 3496 c0 -2 7 -6 15 -10 8 -3 15 -1 15 4 0 6 -7 10 -15 10 -8 0
-15 -2 -15 -4z"/>
<path d="M4180 3488 c0 -9 5 -20 10 -23 13 -8 13 5 0 25 -8 13 -10 13 -10 -2z"/>
<path d="M4350 3490 c0 -5 5 -10 11 -10 5 0 7 5 4 10 -3 6 -8 10 -11 10 -2 0
-4 -4 -4 -10z"/>
<path d="M3350 3470 c0 -5 5 -10 10 -10 6 0 10 5 10 10 0 6 -4 10 -10 10 -5 0
-10 -4 -10 -10z"/>
<path d="M3961 3444 c6 -7 16 -11 21 -8 11 7 3 17 -18 20 -12 2 -13 -1 -3 -12z"/>
<path d="M4055 3420 c-4 -6 6 -10 22 -10 22 0 25 2 13 10 -19 12 -27 12 -35 0z"/>
<path d="M1960 3405 c7 -9 15 -13 17 -11 7 7 -7 26 -19 26 -6 0 -6 -6 2 -15z"/>
<path d="M3190 3401 c0 -21 20 -61 30 -61 19 0 7 64 -12 68 -10 2 -18 -1 -18
-7z"/>
<path d="M1670 3371 c0 -11 5 -23 10 -26 6 -4 10 5 10 19 0 14 -4 26 -10 26
-5 0 -10 -9 -10 -19z"/>
<path d="M2872 3372 c-16 -28 -12 -45 6 -33 8 5 12 19 10 32 l-3 24 -13 -23z"/>
<path d="M3970 3386 c0 -2 7 -9 15 -16 12 -10 15 -10 15 4 0 9 -7 16 -15 16
-8 0 -15 -2 -15 -4z"/>
<path d="M3907 3364 c-14 -14 -6 -24 19 -24 16 0 24 5 22 13 -5 14 -31 21 -41
11z"/>
<path d="M3825 3306 c-11 -8 -14 -15 -8 -19 6 -4 16 0 23 8 17 21 8 28 -15 11z"/>
<path d="M1721 3281 c-6 -11 -11 -27 -11 -37 0 -16 1 -16 20 1 21 19 26 40 11
50 -6 3 -15 -3 -20 -14z"/>
<path d="M2000 3275 c7 -8 16 -12 21 -9 13 8 1 24 -18 24 -13 0 -13 -3 -3 -15z"/>
<path d="M1075 3270 c3 -5 12 -10 20 -10 8 0 17 5 20 10 4 6 -5 10 -20 10 -15
0 -24 -4 -20 -10z"/>
<path d="M725 3260 c-3 -5 1 -10 9 -10 9 0 16 5 16 10 0 6 -4 10 -9 10 -6 0
-13 -4 -16 -10z"/>
<path d="M3001 3261 c-7 -5 -11 -17 -9 -27 4 -17 5 -17 17 4 14 27 12 35 -8
23z"/>
<path d="M3765 3229 c-4 -6 -5 -12 -2 -15 2 -3 7 2 10 11 7 17 1 20 -8 4z"/>
<path d="M670 3155 c0 -8 2 -15 4 -15 2 0 6 7 10 15 3 8 1 15 -4 15 -6 0 -10
-7 -10 -15z"/>
<path d="M1705 3110 c-3 -5 -1 -10 4 -10 6 0 11 5 11 10 0 6 -2 10 -4 10 -3 0
-8 -4 -11 -10z"/>
<path d="M1035 3100 c-7 -12 2 -30 16 -30 12 0 12 27 0 35 -5 3 -12 1 -16 -5z"/>
<path d="M2040 3080 c0 -5 5 -10 10 -10 6 0 10 5 10 10 0 6 -4 10 -10 10 -5 0
-10 -4 -10 -10z"/>
<path d="M736 3054 c-9 -23 -8 -24 14 -24 11 0 20 2 20 4 0 12 -13 36 -20 36
-4 0 -11 -7 -14 -16z"/>
<path d="M3282 3008 c5 -15 28 -23 28 -10 0 5 -7 13 -16 16 -10 4 -14 1 -12
-6z"/>
<path d="M3729 2974 l-24 -25 29 5 c16 3 33 11 38 18 23 36 -9 38 -43 2z"/>
<path d="M3137 2984 c-4 -4 -7 -17 -7 -30 0 -17 4 -21 20 -17 13 4 18 12 16
26 -3 22 -18 32 -29 21z"/>
<path d="M700 2976 c0 -2 7 -7 16 -10 8 -3 12 -2 9 4 -6 10 -25 14 -25 6z"/>
<path d="M1080 2911 c0 -12 5 -21 10 -21 6 0 10 6 10 14 0 8 -4 18 -10 21 -5
3 -10 -3 -10 -14z"/>
<path d="M1750 2864 c0 -15 26 -19 34 -5 3 5 -3 11 -14 14 -13 3 -20 0 -20 -9z"/>
<path d="M1080 2845 c-7 -8 -8 -15 -2 -15 5 0 15 7 22 15 7 8 8 15 2 15 -5 0
-15 -7 -22 -15z"/>
<path d="M1741 2804 c0 -11 3 -14 6 -6 3 7 2 16 -1 19 -3 4 -6 -2 -5 -13z"/>
<path d="M3350 2811 c0 -12 41 -31 68 -31 14 0 14 2 2 14 -20 20 -70 32 -70
17z"/>
<path d="M2165 2770 c3 -5 8 -10 11 -10 2 0 4 5 4 10 0 6 -5 10 -11 10 -5 0
-7 -4 -4 -10z"/>
<path d="M766 2763 c-9 -9 -7 -33 3 -33 12 0 22 28 12 34 -5 3 -11 3 -15 -1z"/>
<path d="M3330 2706 c0 -9 5 -16 10 -16 6 0 10 4 10 9 0 6 -4 13 -10 16 -5 3
-10 -1 -10 -9z"/>
<path d="M1750 2651 c0 -22 5 -43 10 -46 15 -9 42 15 36 32 -3 7 -1 13 5 13
13 0 7 21 -6 22 -6 0 -18 4 -27 9 -16 9 -18 5 -18 -30z"/>
<path d="M1095 2648 c6 -27 11 -32 30 -24 21 8 15 27 -12 37 -18 7 -21 5 -18
-13z"/>
<path d="M3760 2650 c20 -13 33 -13 25 0 -3 6 -14 10 -23 10 -15 0 -15 -2 -2
-10z"/>
<path d="M3420 2630 c0 -18 3 -19 21 -9 17 9 19 13 8 20 -22 14 -29 11 -29
-11z"/>
<path d="M2580 2630 c0 -5 7 -7 15 -4 8 4 15 8 15 10 0 2 -7 4 -15 4 -8 0 -15
-4 -15 -10z"/>
<path d="M3760 2620 c0 -5 9 -10 21 -10 11 0 17 5 14 10 -3 6 -13 10 -21 10
-8 0 -14 -4 -14 -10z"/>
<path d="M3702 2604 c2 -9 14 -21 28 -26 l24 -9 -24 26 c-28 29 -33 31 -28 9z"/>
<path d="M1135 2600 c-3 -5 1 -10 9 -10 9 0 16 5 16 10 0 6 -4 10 -9 10 -6 0
-13 -4 -16 -10z"/>
<path d="M1713 2573 c-3 -10 -8 -22 -11 -27 -3 -5 0 -6 5 -3 11 7 25 47 17 47
-3 0 -7 -8 -11 -17z"/>
<path d="M2606 2573 c-6 -14 -5 -15 5 -6 7 7 10 15 7 18 -3 3 -9 -2 -12 -12z"/>
<path d="M3464 2536 c0 -33 5 -45 21 -52 11 -5 21 -19 23 -31 2 -13 6 -23 10
-24 63 -8 69 -5 77 39 5 33 5 33 -19 17 -20 -13 -24 -14 -29 -2 -3 9 4 19 19
26 13 6 24 16 24 22 0 11 -19 10 -84 -7 -25 -6 -26 -5 -20 25 5 24 3 31 -9 31
-11 0 -14 -11 -13 -44z"/>
<path d="M2992 2550 c0 -14 2 -19 5 -12 2 6 2 18 0 25 -3 6 -5 1 -5 -13z"/>
<path d="M3380 2560 c0 -5 6 -10 14 -10 8 0 18 5 21 10 3 6 -3 10 -14 10 -12
0 -21 -4 -21 -10z"/>
<path d="M1735 2550 c3 -5 10 -10 16 -10 5 0 9 5 9 10 0 6 -7 10 -16 10 -8 0
-12 -4 -9 -10z"/>
<path d="M1570 2540 c0 -5 5 -10 11 -10 5 0 7 5 4 10 -3 6 -8 10 -11 10 -2 0
-4 -4 -4 -10z"/>
<path d="M2586 2514 c-9 -22 -8 -24 9 -24 8 0 15 9 15 20 0 24 -15 27 -24 4z"/>
<path d="M770 2510 c0 -5 4 -10 9 -10 6 0 13 5 16 10 3 6 -1 10 -9 10 -9 0
-16 -4 -16 -10z"/>
<path d="M3740 2500 c-12 -22 -6 -40 12 -40 6 0 8 11 6 25 -4 16 0 25 11 28
14 4 14 5 -1 6 -10 0 -22 -8 -28 -19z"/>
<path d="M3692 2480 c-10 -17 -10 -20 3 -20 8 0 15 9 15 20 0 11 -1 20 -3 20
-1 0 -8 -9 -15 -20z"/>
<path d="M3400 2475 c0 -9 11 -33 25 -53 14 -20 25 -45 25 -54 0 -14 7 -17 30
-14 49 6 43 -8 -15 -38 -30 -15 -57 -32 -61 -38 -9 -15 11 -30 40 -30 26 0 34
-12 16 -23 -6 -4 -7 -13 -1 -23 4 -9 7 -25 6 -34 -4 -20 21 -25 28 -5 3 6 6 2
6 -11 1 -20 4 -21 21 -12 12 6 20 21 20 35 0 14 4 25 9 25 4 0 8 -14 7 -31 -1
-34 -35 -69 -66 -69 -24 0 -33 -27 -13 -38 14 -8 14 -10 -1 -15 -9 -4 -16 -13
-16 -22 0 -18 12 -19 27 -4 6 6 17 8 24 4 9 -6 9 -11 -3 -19 -13 -10 -12 -17
8 -61 l22 -50 1 43 c1 29 5 41 12 36 11 -7 8 -36 -9 -92 -10 -30 -9 -33 9 -27
14 5 19 2 19 -13 0 -14 -7 -19 -25 -19 -35 -1 -39 -7 -22 -40 14 -27 14 -28
-8 -29 -28 -2 -77 -26 -82 -40 -2 -6 8 -9 26 -6 31 4 50 -13 32 -31 -8 -8 -14
-8 -23 1 -16 16 -25 15 -32 -4 -3 -8 -2 -12 4 -9 5 3 21 -2 36 -11 22 -15 23
-19 10 -26 -16 -9 -23 -58 -8 -58 12 1 38 24 44 40 3 8 1 25 -3 38 -5 12 -5
22 -1 22 15 -1 53 -40 48 -49 -4 -5 1 -14 10 -19 13 -7 11 -11 -15 -22 -17 -7
-28 -17 -24 -23 4 -6 0 -8 -10 -4 -12 5 -17 1 -17 -14 0 -11 -9 -23 -20 -27
-18 -7 -19 -9 -4 -36 8 -16 23 -36 34 -43 18 -13 18 -14 -9 -44 -37 -40 -32
-82 8 -73 24 5 25 4 8 -10 -12 -9 -17 -24 -15 -42 3 -25 -1 -29 -32 -38 -19
-5 -36 -10 -36 -10 -1 -1 -5 -11 -8 -23 -6 -20 -4 -23 21 -24 27 -1 27 -1 4
-8 -43 -12 -38 -38 7 -32 9 1 11 -6 7 -22 -7 -28 20 -101 34 -93 5 4 15 -2 20
-11 10 -17 12 -17 25 0 24 31 27 18 6 -24 -17 -33 -19 -43 -9 -56 11 -12 10
-14 -2 -13 -7 1 -27 2 -42 1 -27 -1 -27 -2 -10 -20 26 -27 63 -37 63 -17 0 21
10 20 25 -1 11 -15 15 -16 31 -3 15 13 17 13 12 0 -2 -8 -15 -17 -29 -19 -29
-4 -39 -17 -39 -53 0 -23 -4 -28 -25 -28 -33 0 -32 -14 5 -37 l30 -19 -39 -32
c-32 -26 -40 -29 -45 -16 -4 10 -12 14 -22 10 -9 -4 -22 -1 -30 4 -10 9 -11 6
-5 -17 4 -15 14 -28 22 -29 57 -4 55 -3 34 -18 -18 -13 -18 -14 2 -24 14 -8
23 -8 31 0 9 9 12 7 12 -10 0 -18 -6 -22 -30 -22 -17 0 -29 -3 -29 -7 4 -24
-4 -33 -26 -33 -28 0 -34 -17 -10 -27 9 -3 23 -19 31 -36 15 -28 15 -31 -3
-46 -12 -10 -18 -28 -18 -51 1 -20 -5 -40 -14 -46 -8 -6 -11 -16 -7 -23 6 -9
13 -8 27 5 18 16 19 16 19 -18 0 -28 5 -37 21 -41 12 -3 18 -10 14 -16 -3 -6
1 -11 9 -11 9 0 16 6 16 14 0 18 35 61 71 87 l31 22 -16 -32 c-17 -31 -14 -57
5 -46 5 4 9 2 9 -3 0 -5 -9 -12 -21 -15 -27 -7 -22 -37 8 -48 18 -7 21 -4 20
14 -2 57 3 77 22 77 19 0 51 34 51 53 0 5 -9 7 -20 4 -23 -6 -25 1 -6 26 8 10
25 19 38 20 21 1 58 31 58 47 0 5 -11 11 -25 14 -29 7 -31 18 -9 51 12 18 13
25 4 25 -8 0 -9 4 -3 12 5 7 8 23 7 36 -1 12 -2 29 -3 37 -1 18 -31 21 -31 3
0 -9 -3 -9 -11 -1 -17 17 -1 77 24 88 11 6 23 17 25 25 4 12 1 11 -20 -2 -20
-13 -28 -14 -37 -5 -7 7 -12 8 -11 2 2 -5 2 -21 1 -34 -1 -18 -5 -22 -21 -18
-10 3 -21 0 -23 -7 -3 -7 -8 -8 -15 -1 -12 11 3 38 28 48 10 4 8 6 -7 6 -16 1
-21 6 -17 16 4 10 13 13 25 10 11 -4 19 -2 19 6 0 8 3 9 13 0 8 -6 17 -8 20
-4 18 17 1 32 -55 48 l-63 18 43 9 c47 10 49 14 26 47 -16 22 -15 23 7 19 21
-3 24 -8 21 -41 -3 -35 -2 -37 17 -25 13 8 17 17 12 27 -5 9 -11 29 -15 45 -6
26 -5 28 9 16 8 -7 30 -14 49 -15 34 -3 34 -4 27 59 -1 5 -10 1 -20 -8 -19
-17 -20 -17 -23 6 -2 18 -10 24 -35 26 -29 3 -33 0 -33 -20 0 -13 -4 -29 -9
-36 -12 -19 -47 -10 -43 11 2 11 -4 17 -18 17 -15 0 -20 6 -20 25 0 25 1 25
24 10 19 -13 25 -13 29 -3 2 7 0 21 -5 30 -7 15 -4 18 17 18 15 0 25 -6 25
-14 0 -22 19 -30 35 -16 21 18 19 29 -10 42 -19 9 -25 19 -25 44 0 18 5 34 12
36 6 2 12 15 13 29 1 17 8 25 24 27 l23 4 -24 25 -23 25 23 18 c27 22 28 30 5
30 -15 0 -13 4 7 20 l25 20 -39 0 -39 0 24 26 c16 17 31 24 46 21 37 -7 45 15
20 54 l-22 34 -3 -28 c-2 -19 -12 -31 -28 -38 -35 -13 -45 -10 -12 4 25 12 26
14 13 45 -11 25 -20 32 -42 32 -48 0 -60 17 -17 22 22 3 42 1 45 -4 3 -5 13 2
22 15 18 27 12 43 -10 26 -18 -16 -16 -4 3 15 8 9 27 16 41 16 15 0 23 5 20
13 -2 6 3 17 12 24 13 9 8 11 -26 8 -24 -1 -40 1 -37 6 3 5 14 9 25 9 25 0 25
16 -1 23 -21 5 -28 41 -10 52 9 5 7 52 -2 60 -2 1 -25 14 -53 28 -37 19 -44
26 -27 27 25 0 28 16 7 44 -8 11 -12 29 -9 43 4 13 1 30 -6 38 -10 12 -10 15
0 15 7 0 10 8 7 20 -3 14 0 20 10 20 13 0 13 3 -1 26 -16 24 -16 25 1 22 12
-2 18 3 17 15 -2 21 12 23 20 2 9 -24 26 -17 26 11 0 24 -3 25 -36 21 -48 -7
-58 17 -20 50 24 20 25 23 8 23 -23 0 -48 25 -33 34 5 4 11 -2 13 -11 3 -16 6
-15 17 5 10 19 10 26 -1 39 -12 15 -11 15 10 4 26 -14 57 -7 46 10 -4 8 0 9
15 4 31 -10 28 25 -5 50 -25 19 -25 19 -4 27 17 6 20 13 14 30 -8 28 -4 24
-33 33 -22 7 -23 5 -16 -24 7 -32 2 -36 -37 -32 -23 3 -23 -1 3 -30 20 -23 20
-24 2 -28 -10 -2 -23 -7 -29 -12 -6 -5 -21 -6 -34 -1 -21 8 -21 8 5 20 18 8
25 18 21 28 -3 9 -6 27 -6 42 0 20 -3 23 -12 14 -19 -19 -30 -14 -26 11 2 13
9 21 18 19 46 -11 58 -11 63 2 4 9 -5 21 -20 31 -24 16 -28 16 -73 -3 -43 -18
-50 -19 -61 -6 -7 9 -16 11 -21 6 -17 -17 -43 -2 -63 35 -22 40 -45 54 -45 28z
m175 -165 c3 -5 2 -10 -4 -10 -5 0 -13 5 -16 10 -3 6 -2 10 4 10 5 0 13 -4 16
-10z m55 -107 c0 -26 0 -26 -20 -8 -16 14 -17 20 -8 27 22 13 28 9 28 -19z
m-30 -67 c0 -3 -4 -8 -10 -11 -5 -3 -10 -1 -10 4 0 6 5 11 10 11 6 0 10 -2 10
-4z m-62 -93 c6 -19 -25 -16 -32 3 -4 11 -1 14 11 12 9 -2 18 -9 21 -15z m76
-9 c5 -13 2 -15 -16 -10 -13 3 -27 6 -31 6 -5 0 -5 5 -2 10 10 16 42 12 49 -6z
m34 -69 c-3 -3 -9 2 -12 12 -6 14 -5 15 5 6 7 -7 10 -15 7 -18z m-13 -44 c-3
-6 -11 -8 -17 -5 -6 4 -5 9 3 15 16 10 23 4 14 -10z m-25 -23 c0 -5 -4 -8 -10
-8 -5 0 -10 10 -10 23 0 18 2 19 10 7 5 -8 10 -18 10 -22z m-20 -148 c0 -5
-10 -10 -22 -10 -19 0 -20 2 -8 10 19 13 30 13 30 0z m83 -13 c4 3 9 -2 13
-11 3 -9 17 -16 30 -16 15 0 24 -6 24 -15 0 -17 -25 -20 -35 -5 -4 7 -13 7
-26 0 -13 -7 -19 -7 -19 0 0 5 -13 10 -30 10 -20 0 -30 5 -30 15 0 8 9 15 20
15 11 0 20 5 20 11 0 8 4 9 13 0 8 -6 17 -8 20 -4z m13 -93 c-4 -9 -9 -15 -11
-12 -3 3 -3 13 1 22 4 9 9 15 11 12 3 -3 3 -13 -1 -22z m-76 -14 c0 -5 -4 -10
-10 -10 -5 0 -10 5 -10 10 0 6 5 10 10 10 6 0 10 -4 10 -10z m52 -212 c-7 -7
-12 -8 -12 -2 0 14 12 26 19 19 2 -3 -1 -11 -7 -17z m-54 -158 c7 0 20 -7 29
-15 8 -8 19 -13 23 -10 5 3 14 -3 20 -14 7 -13 7 -22 0 -26 -13 -8 -50 4 -50
16 0 5 -13 9 -30 9 -27 0 -30 3 -30 32 0 25 3 29 12 20 7 -7 18 -12 26 -12z
m-68 -70 c0 -5 -4 -10 -10 -10 -5 0 -10 5 -10 10 0 6 5 10 10 10 6 0 10 -4 10
-10z m133 -33 c-4 -18 -11 -23 -34 -23 l-30 0 28 22 c36 29 41 29 36 1z m-129
-32 c-17 -26 -34 -29 -41 -8 -3 9 20 22 55 32 1 1 -5 -10 -14 -24z m116 -536
c0 -5 -7 -9 -15 -9 -9 0 -12 6 -9 15 6 15 24 11 24 -6z m-72 -19 c-7 -11 -17
-20 -22 -20 -5 0 -1 9 9 20 10 11 20 20 22 20 2 0 -2 -9 -9 -20z m107 -30 c3
-5 3 -15 -1 -21 -6 -11 -23 6 -24 24 0 10 18 9 25 -3z m-25 -75 c-7 -8 -16
-15 -21 -15 -5 0 -9 7 -9 15 0 9 9 15 21 15 18 0 19 -2 9 -15z"/>
<path d="M3620 2460 c0 -5 9 -10 21 -10 11 0 17 5 14 10 -3 6 -13 10 -21 10
-8 0 -14 -4 -14 -10z"/>
<path d="M2587 2430 c-4 -17 -2 -18 14 -9 11 5 17 14 14 20 -10 15 -22 10 -28
-11z"/>
<path d="M3690 2434 c0 -8 5 -12 10 -9 6 4 8 11 5 16 -9 14 -15 11 -15 -7z"/>
<path d="M3780 2406 c0 -9 5 -16 10 -16 6 0 10 4 10 9 0 6 -4 13 -10 16 -5 3
-10 -1 -10 -9z"/>
<path d="M2576 2365 c-3 -8 -1 -15 4 -15 6 0 10 7 10 15 0 8 -2 15 -4 15 -2 0
-6 -7 -10 -15z"/>
<path d="M770 2360 c0 -5 7 -7 15 -4 8 4 15 8 15 10 0 2 -7 4 -15 4 -8 0 -15
-4 -15 -10z"/>
<path d="M1350 2360 c0 -5 5 -10 10 -10 6 0 10 5 10 10 0 6 -4 10 -10 10 -5 0
-10 -4 -10 -10z"/>
<path d="M3411 2353 c7 -10 14 -19 15 -21 1 -1 4 6 7 18 4 15 0 20 -15 20 -18
0 -19 -2 -7 -17z"/>
<path d="M1126 2315 c4 -9 11 -14 16 -13 15 5 11 23 -6 26 -11 2 -14 -2 -10
-13z"/>
<path d="M2120 2310 c0 -5 5 -10 11 -10 5 0 7 5 4 10 -3 6 -8 10 -11 10 -2 0
-4 -4 -4 -10z"/>
<path d="M3797 2313 c-10 -9 -9 -23 2 -23 5 0 11 7 15 15 5 15 -5 20 -17 8z"/>
<path d="M2613 2263 c-20 -7 -15 -30 7 -36 15 -4 20 0 20 13 0 22 -9 29 -27
23z"/>
<path d="M2950 2260 c-9 -6 -10 -10 -3 -10 6 0 15 5 18 10 8 12 4 12 -15 0z"/>
<path d="M2070 2221 c0 -5 5 -13 10 -16 6 -3 10 -2 10 4 0 5 -4 13 -10 16 -5
3 -10 2 -10 -4z"/>
<path d="M3406 2215 c4 -8 8 -15 10 -15 2 0 4 7 4 15 0 8 -4 15 -10 15 -5 0
-7 -7 -4 -15z"/>
<path d="M1765 2210 c3 -5 8 -10 11 -10 2 0 4 5 4 10 0 6 -5 10 -11 10 -5 0
-7 -4 -4 -10z"/>
<path d="M3798 2203 c-10 -2 -21 -15 -24 -29 -3 -13 -9 -22 -14 -19 -4 2 -16
-2 -26 -10 -23 -17 -8 -19 35 -4 17 6 30 17 29 24 -2 8 6 21 17 29 20 15 15
18 -17 9z"/>
<path d="M756 2182 c-3 -6 -1 -14 5 -17 14 -9 20 -2 10 14 -6 8 -11 9 -15 3z"/>
<path d="M1784 2167 c-8 -21 -3 -29 13 -19 8 5 9 13 3 22 -7 12 -10 12 -16 -3z"/>
<path d="M3411 2141 c-10 -7 -8 -12 10 -25 26 -17 46 -7 36 18 -7 18 -25 20
-46 7z"/>
<path d="M2029 2127 c0 -1 -3 -14 -5 -29 -5 -29 12 -39 22 -13 4 8 19 15 35
15 20 0 27 4 23 14 -4 11 -70 22 -75 13z"/>
<path d="M2614 2096 c-3 -15 -5 -29 -3 -31 10 -9 61 10 70 27 14 25 3 36 -20
21 -13 -8 -22 -8 -29 -1 -8 8 -13 3 -18 -16z"/>
<path d="M3375 2110 c3 -5 13 -10 21 -10 8 0 14 5 14 10 0 6 -9 10 -21 10 -11
0 -17 -4 -14 -10z"/>
<path d="M1855 2085 c-16 -8 -40 -14 -52 -15 -13 0 -24 -7 -24 -15 -1 -8 -2
-21 -3 -27 -1 -7 4 -12 11 -11 7 2 20 -14 30 -35 9 -20 21 -40 26 -43 5 -4 6
-12 3 -18 -4 -6 -2 -11 3 -11 14 0 14 -37 0 -46 -8 -4 -7 -9 2 -15 11 -7 6
-15 -19 -37 -22 -19 -31 -34 -26 -45 7 -19 29 -23 39 -7 11 18 25 10 25 -15 0
-21 -4 -24 -29 -21 -16 2 -35 -1 -43 -5 -11 -7 -11 -9 1 -9 7 0 11 -6 7 -15
-6 -17 2 -19 24 -6 21 14 30 3 20 -23 -7 -19 -4 -28 11 -42 24 -22 24 -32 -1
-36 -18 -3 -18 -6 -6 -28 7 -14 18 -24 25 -22 19 4 38 -27 33 -54 -3 -18 -10
-24 -31 -23 -17 1 -20 3 -8 6 23 6 22 20 -3 33 -16 8 -24 6 -40 -10 -11 -11
-18 -25 -14 -31 4 -7 10 -7 16 -1 20 20 78 -52 78 -98 0 -11 7 -23 15 -26 22
-9 19 -20 -25 -79 -42 -57 -45 -91 -8 -79 14 4 18 3 13 -6 -5 -7 -1 -11 11
-10 34 4 37 0 13 -18 l-22 -19 27 -7 c18 -4 26 -12 23 -20 -3 -8 0 -19 6 -25
18 -18 17 -41 -3 -41 -10 0 -23 -7 -30 -15 -10 -13 -15 -13 -21 -3 -4 7 -11 9
-16 4 -4 -4 0 -12 10 -17 9 -6 17 -17 17 -26 0 -9 16 -31 36 -50 20 -18 32
-32 28 -31 -5 2 -18 -6 -30 -18 l-21 -21 35 1 c29 1 39 -4 51 -26 15 -25 14
-28 -4 -42 -11 -9 -28 -16 -37 -16 -10 0 -18 -5 -18 -11 0 -21 -19 2 -25 31
-8 38 -25 39 -25 3 0 -41 35 -93 62 -93 l22 0 -22 -16 c-18 -12 -22 -25 -22
-69 0 -52 1 -54 35 -66 29 -11 35 -18 35 -43 l0 -30 -30 29 c-16 16 -31 27
-34 24 -6 -7 -26 -47 -26 -53 0 -3 11 -6 25 -6 18 0 25 -5 25 -20 0 -11 -4
-20 -10 -20 -5 0 -10 5 -10 11 0 5 -4 7 -10 4 -5 -3 -10 -17 -10 -30 0 -13 5
-27 10 -30 6 -3 10 -19 10 -35 0 -23 6 -31 24 -36 17 -4 22 -11 19 -25 -3 -10
0 -19 6 -19 5 0 8 -8 5 -17 -5 -15 -3 -15 11 2 9 11 20 27 25 35 7 12 11 12
24 1 15 -13 15 -15 0 -32 -9 -10 -13 -26 -10 -37 5 -15 1 -21 -19 -26 -22 -6
-24 -9 -15 -27 6 -11 10 -32 9 -47 -3 -29 6 -52 22 -52 5 0 9 9 9 21 0 18 4
20 25 15 20 -5 25 -3 25 14 0 11 5 20 11 20 5 0 9 -8 7 -17 -4 -23 4 -26 52
-18 41 7 52 21 24 32 -14 5 -13 9 7 25 17 14 19 18 7 14 -20 -6 -19 -7 -22 79
-1 51 -4 61 -24 71 l-23 12 25 6 c14 3 26 13 26 20 0 8 3 21 6 29 4 10 -8 18
-40 28 -32 9 -46 19 -46 31 0 10 7 18 16 18 10 0 14 -6 11 -14 -8 -20 18 -28
48 -14 20 9 23 16 18 39 -5 25 -2 29 17 29 20 0 22 4 16 32 -8 39 -14 46 -46
52 -14 2 -27 5 -29 5 -2 1 2 7 8 15 10 11 8 16 -8 21 -18 5 -19 10 -10 27 14
25 3 36 -21 20 -16 -10 -22 -8 -35 10 -8 13 -15 28 -15 35 0 8 -9 12 -22 10
-13 -2 -17 -2 -10 0 15 5 16 33 1 33 -7 0 -9 9 -6 21 8 28 -3 80 -14 73 -5 -3
-9 -1 -9 4 0 17 38 20 60 5 24 -17 25 -17 34 15 6 19 4 22 -17 22 -17 0 -27 7
-31 23 -9 33 -8 37 9 37 8 0 15 -4 15 -10 0 -5 9 -10 20 -10 13 0 18 5 14 15
-4 8 -1 15 4 15 13 0 42 28 42 41 0 5 -6 9 -13 9 -7 0 -22 6 -33 14 -18 14
-18 14 0 13 10 -1 21 4 23 11 3 7 1 12 -4 11 -35 -6 -43 2 -43 44 0 43 -29
119 -49 131 -11 7 -51 79 -51 91 0 3 12 2 27 -1 l27 -7 -22 31 c-12 16 -22 41
-22 54 -1 22 -1 22 -15 4 -17 -22 -20 -21 -29 12 -6 18 -3 22 13 22 25 0 27
20 6 60 -15 30 -15 30 13 30 50 0 83 -58 45 -79 -15 -8 -16 -12 -3 -35 20 -38
35 -27 38 30 2 36 9 54 25 67 l22 18 -24 -7 c-19 -5 -23 -3 -18 10 4 9 1 16
-4 16 -6 0 -9 9 -6 20 3 11 1 20 -4 20 -5 0 2 22 16 50 31 61 31 78 3 89 -25
10 -41 5 -33 -10 4 -5 -1 -9 -9 -9 -20 0 -21 26 -1 34 11 4 14 13 9 31 -3 14
-2 25 4 25 6 0 8 10 4 22 -3 14 -1 19 6 14 20 -12 23 13 5 40 -17 27 -17 27 4
15 19 -10 22 -9 20 9 -1 13 -9 20 -22 21 -19 0 -19 1 2 9 17 7 21 15 17 42 -9
62 -14 77 -33 88 -17 8 -20 6 -26 -21 -6 -26 -10 -30 -31 -25 -19 5 -26 0 -39
-24 -15 -28 -26 -39 -24 -22 4 25 -3 52 -13 50 -7 -2 -20 12 -28 29 -17 36
-22 37 -65 18z m26 -55 c15 0 18 -5 13 -24 -3 -13 -1 -40 4 -60 9 -32 8 -36
-8 -36 -23 0 -31 12 -20 30 11 17 2 40 -16 40 -17 0 -37 37 -28 51 3 6 13 8
21 5 8 -3 23 -6 34 -6z m209 -39 c0 -11 -4 -23 -10 -26 -6 -4 -10 5 -10 19 0
14 5 26 10 26 6 0 10 -9 10 -19z m-40 -45 c0 -2 -11 -6 -25 -8 -13 -3 -22 -1
-19 3 5 9 44 13 44 5z m-117 -119 c-6 -38 -23 -47 -53 -27 -12 8 -11 10 7 10
26 0 38 15 22 26 -9 5 -7 11 6 20 24 18 26 15 18 -29z m113 -16 c-12 -19 -24
-12 -19 10 4 13 9 17 15 11 6 -6 7 -15 4 -21z m-29 -36 c0 -12 -13 -13 -57 -6
-3 1 0 5 7 9 20 13 50 11 50 -3z m59 -69 c16 -17 10 -42 -13 -51 -24 -8 -39
11 -24 29 7 8 10 20 6 26 -9 15 14 12 31 -4z m-133 -24 c-3 -12 -12 -22 -19
-22 -12 0 -11 5 2 25 19 30 26 28 17 -3z m65 -10 c3 -17 -2 -22 -18 -22 -16 0
-20 4 -16 16 3 9 6 20 6 26 0 19 25 1 28 -20z m32 -39 c0 -5 -4 -15 -10 -23
-11 -18 -25 -7 -17 15 6 15 27 21 27 8z m-52 -41 c-12 -13 -13 -13 -16 1 -2
10 -10 14 -20 11 -14 -5 -13 -3 2 10 26 21 54 2 34 -22z m-8 -243 c0 -18 -2
-19 -15 -9 -8 7 -15 16 -15 21 0 5 7 9 15 9 9 0 15 -9 15 -21z m30 -53 c0 -9
-7 -12 -20 -9 -11 3 -17 9 -14 14 8 14 34 10 34 -5z m0 -66 c0 -13 -5 -18 -15
-14 -8 4 -15 12 -15 20 0 8 7 14 15 14 8 0 15 -9 15 -20z m-102 -35 c-3 -3 -9
2 -12 12 -6 14 -5 15 5 6 7 -7 10 -15 7 -18z m148 -27 c-9 -5 -21 -6 -26 -3
-6 3 -10 3 -10 -2 0 -15 19 -38 32 -38 7 0 14 -14 16 -31 2 -24 -6 -43 -38
-82 -35 -45 -38 -52 -20 -52 13 0 20 -7 20 -20 0 -11 -4 -20 -9 -20 -14 0 -41
29 -41 43 0 19 20 90 32 113 8 18 6 28 -13 53 -21 29 -22 31 -5 50 15 16 22
18 48 9 25 -9 28 -12 14 -20z m44 -156 c0 -4 -9 -8 -20 -9 -11 -1 -20 2 -20 8
0 5 9 9 20 9 11 0 20 -4 20 -8z m-95 -383 c-10 -15 -25 -10 -19 6 4 8 10 12
15 9 5 -3 7 -10 4 -15z m160 -18 c3 -6 -3 -15 -14 -20 -16 -9 -18 -8 -14 9 6
21 18 26 28 11z m35 -55 c0 -2 -7 -7 -16 -10 -8 -3 -12 -2 -9 4 6 10 25 14 25
6z m-72 -168 c18 -21 19 -26 7 -48 -13 -24 -14 -24 -21 -5 -4 11 -14 28 -21
37 -14 16 -11 38 6 38 4 0 17 -10 29 -22z m-58 -48 c0 -13 -7 -20 -19 -20 -14
0 -18 5 -14 20 3 11 12 20 19 20 8 0 14 -9 14 -20z m102 -145 c0 -5 -5 -11
-11 -13 -6 -2 -11 4 -11 13 0 9 5 15 11 13 6 -2 11 -8 11 -13z m13 -45 c3 -5
-1 -10 -10 -10 -9 0 -13 5 -10 10 3 6 8 10 10 10 2 0 7 -4 10 -10z"/>
<path d="M750 2076 c0 -2 7 -6 15 -10 8 -3 15 -1 15 4 0 6 -7 10 -15 10 -8 0
-15 -2 -15 -4z"/>
<path d="M2128 2072 c-19 -4 -24 -17 -9 -26 5 -3 14 1 21 9 15 18 12 23 -12
17z"/>
<path d="M2595 2030 c4 -6 11 -8 16 -5 14 9 11 15 -7 15 -8 0 -12 -5 -9 -10z"/>
<path d="M3768 2023 c10 -4 8 -9 -6 -19 -26 -18 -30 -109 -6 -118 21 -8 46 52
32 77 -6 13 -6 23 3 33 10 13 10 17 -2 25 -8 5 -18 8 -24 8 -5 0 -4 -3 3 -6z"/>
<path d="M2996 2012 c-3 -6 -1 -14 5 -17 14 -9 20 -2 10 14 -6 8 -11 9 -15 3z"/>
<path d="M3710 2011 c0 -5 5 -13 10 -16 6 -3 10 -2 10 4 0 5 -4 13 -10 16 -5
3 -10 2 -10 -4z"/>
<path d="M2750 1970 c0 -5 5 -10 10 -10 6 0 10 5 10 10 0 6 -4 10 -10 10 -5 0
-10 -4 -10 -10z"/>
<path d="M2965 1962 c-26 -9 -31 -32 -6 -32 10 0 21 9 24 20 3 11 4 20 4 19
-1 -1 -11 -4 -22 -7z"/>
<path d="M3427 1963 c-4 -3 -7 -11 -7 -17 0 -6 5 -5 12 2 6 6 9 14 7 17 -3 3
-9 2 -12 -2z"/>
<path d="M1760 1935 c0 -8 9 -15 20 -15 11 0 20 2 20 5 0 2 -9 9 -20 15 -16 9
-20 8 -20 -5z"/>
<path d="M1295 1930 c-3 -5 1 -10 9 -10 9 0 16 5 16 10 0 6 -4 10 -9 10 -6 0
-13 -4 -16 -10z"/>
<path d="M740 1921 c0 -10 24 -21 43 -21 7 0 3 7 -7 15 -22 17 -36 19 -36 6z"/>
<path d="M826 1917 c3 -10 9 -15 12 -12 3 3 0 11 -7 18 -10 9 -11 8 -5 -6z"/>
<path d="M3697 1915 c-5 -11 0 -15 16 -15 12 0 18 4 12 8 -5 4 -13 11 -16 15
-4 4 -9 1 -12 -8z"/>
<path d="M1790 1895 c0 -8 7 -15 15 -15 8 0 15 7 15 15 0 8 -7 15 -15 15 -8 0
-15 -7 -15 -15z"/>
<path d="M3455 1872 c-11 -11 -4 -20 20 -24 14 -3 30 0 35 7 8 10 3 14 -20 17
-16 3 -32 2 -35 0z"/>
<path d="M3737 1841 c-21 -37 -21 -38 4 -44 17 -5 20 -2 16 15 -5 17 -2 19 20
13 25 -6 26 -5 11 16 -21 33 -31 33 -51 0z"/>
<path d="M2615 1829 c-10 -15 1 -23 20 -15 9 3 13 10 10 16 -8 13 -22 13 -30
-1z"/>
<path d="M1780 1821 c0 -5 5 -13 10 -16 6 -3 10 -2 10 4 0 5 -4 13 -10 16 -5
3 -10 2 -10 -4z"/>
<path d="M2136 1807 c8 -26 24 -46 24 -30 0 6 3 18 6 26 3 9 -3 16 -16 20 -18
4 -20 2 -14 -16z"/>
<path d="M3465 1790 c-11 -17 5 -32 21 -19 8 6 14 15 14 20 0 12 -27 11 -35
-1z"/>
<path d="M3756 1771 c-4 -5 -2 -12 3 -15 5 -4 12 -2 15 3 4 5 2 12 -3 15 -5 4
-12 2 -15 -3z"/>
<path d="M1760 1740 c-8 -5 -12 -11 -9 -14 2 -3 11 -1 19 4 8 5 12 11 9 14 -2
3 -11 1 -19 -4z"/>
<path d="M2903 1693 c-32 -4 -40 -12 -26 -26 3 -4 12 -2 20 5 10 8 20 8 39 -3
21 -11 27 -11 34 1 5 8 6 18 4 22 -5 8 -12 8 -71 1z"/>
<path d="M1150 1656 c0 -6 11 -11 25 -11 14 0 24 5 22 10 -5 14 -47 15 -47 1z"/>
<path d="M1767 1661 c-15 -6 -13 -9 17 -24 36 -17 42 -13 30 17 -7 17 -18 19
-47 7z"/>
<path d="M2140 1643 c1 -27 1 -27 15 -9 19 25 19 36 0 36 -10 0 -15 -10 -15
-27z"/>
<path d="M536 1651 c-3 -4 -24 -7 -47 -6 -41 2 -41 2 -21 -17 17 -18 24 -19
55 -9 45 15 69 41 39 41 -12 0 -23 -4 -26 -9z"/>
<path d="M909 1658 c-9 -29 -4 -39 19 -44 15 -3 33 -7 40 -10 14 -4 16 15 3
35 -5 8 -16 11 -25 8 -9 -4 -16 -2 -16 3 0 9 -18 15 -21 8z"/>
<path d="M3770 1650 c0 -5 7 -10 15 -10 8 0 15 5 15 10 0 6 -7 10 -15 10 -8 0
-15 -4 -15 -10z"/>
<path d="M2966 1615 c-4 -11 2 -15 26 -15 26 0 29 2 18 15 -7 8 -18 15 -25 15
-7 0 -15 -7 -19 -15z"/>
<path d="M3821 1623 c0 -4 4 -17 9 -28 8 -19 9 -19 9 2 1 12 -3 25 -9 28 -5 3
-10 3 -9 -2z"/>
<path d="M2140 1591 c0 -12 9 -20 25 -23 31 -6 37 0 24 23 -13 25 -49 25 -49
0z"/>
<path d="M2610 1598 c1 -24 27 -61 34 -50 4 6 -1 23 -10 37 -18 28 -24 31 -24
13z"/>
<path d="M1790 1531 c0 -5 5 -13 10 -16 6 -3 10 -2 10 4 0 5 -4 13 -10 16 -5
3 -10 2 -10 -4z"/>
<path d="M2146 1514 l-18 -26 28 4 c21 2 30 9 32 26 5 30 -18 28 -42 -4z"/>
<path d="M3416 1521 c-3 -5 4 -11 16 -14 30 -8 35 -1 9 12 -11 6 -22 7 -25 2z"/>
<path d="M1168 1498 c4 -17 2 -20 -13 -14 -15 5 -16 4 -6 -8 7 -8 9 -21 5 -28
-4 -6 6 -2 22 9 37 27 43 63 9 63 -19 0 -22 -4 -17 -22z"/>
<path d="M1200 1440 c0 -5 4 -10 9 -10 6 0 13 5 16 10 3 6 -1 10 -9 10 -9 0
-16 -4 -16 -10z"/>
<path d="M813 1430 c-28 -11 -30 -20 -4 -20 10 0 21 7 25 15 3 8 4 15 3 14 -1
0 -12 -4 -24 -9z"/>
<path d="M2160 1420 c0 -11 5 -20 10 -20 6 0 10 9 10 20 0 11 -4 20 -10 20 -5
0 -10 -9 -10 -20z"/>
<path d="M2946 1426 c3 -8 12 -12 20 -9 17 6 9 23 -11 23 -8 0 -12 -6 -9 -14z"/>
<path d="M1790 1415 c7 -9 15 -13 17 -11 7 7 -7 26 -19 26 -6 0 -6 -6 2 -15z"/>
<path d="M2113 1410 c-1 -11 1 -20 5 -20 4 0 13 9 20 20 10 17 10 20 -6 20
-11 0 -18 -8 -19 -20z"/>
<path d="M1827 1397 c-6 -16 29 -40 45 -31 7 4 5 10 -6 16 -9 5 -14 13 -11 19
4 5 0 9 -8 9 -8 0 -17 -6 -20 -13z"/>
<path d="M1256 1391 c-4 -7 -5 -15 -2 -18 9 -9 19 4 14 18 -4 11 -6 11 -12 0z"/>
<path d="M2095 1371 c-3 -5 -1 -12 5 -16 17 -10 11 -33 -10 -40 -27 -9 -25
-23 5 -37 21 -9 29 -9 40 3 11 11 12 22 3 57 -10 39 -29 54 -43 33z"/>
<path d="M2940 1370 c0 -5 4 -10 9 -10 6 0 13 5 16 10 3 6 -1 10 -9 10 -9 0
-16 -4 -16 -10z"/>
<path d="M3440 1355 c0 -8 4 -15 10 -15 5 0 7 7 4 15 -4 8 -8 15 -10 15 -2 0
-4 -7 -4 -15z"/>
<path d="M1824 1325 c-17 -13 -17 -14 -2 -15 9 0 20 5 23 11 11 17 0 20 -21 4z"/>
<path d="M1884 1325 c-18 -14 -18 -14 9 -15 15 0 27 4 27 9 0 18 -17 20 -36 6z"/>
<path d="M2669 1319 c4 -13 14 -25 20 -27 10 -3 10 0 2 16 -16 30 -33 38 -22
11z"/>
<path d="M815 1317 c-9 -22 -2 -62 10 -60 6 1 11 14 13 29 4 32 -14 56 -23 31z"/>
<path d="M3445 1322 c-11 -8 -15 -51 -6 -53 51 -7 51 -7 34 25 -9 17 -16 32
-17 33 -1 1 -6 -1 -11 -5z"/>
<path d="M640 1310 c8 -5 20 -10 25 -10 6 0 3 5 -5 10 -8 5 -19 10 -25 10 -5
0 -3 -5 5 -10z"/>
<path d="M1175 1313 c-31 -8 -36 -17 -21 -38 11 -16 17 -17 29 -7 15 13 30 53
19 51 -4 -1 -16 -3 -27 -6z"/>
<path d="M250 1300 c0 -5 7 -7 15 -4 8 4 15 8 15 10 0 2 -7 4 -15 4 -8 0 -15
-4 -15 -10z"/>
<path d="M1845 1281 c-3 -5 -1 -12 5 -16 5 -3 10 1 10 9 0 18 -6 21 -15 7z"/>
<path d="M2188 1278 c-14 -11 -42 -87 -35 -94 1 -1 14 -5 30 -9 26 -7 38 7 17
20 -13 8 -13 51 0 76 12 22 10 24 -12 7z"/>
<path d="M2902 1281 c-6 -3 -12 -17 -13 -31 -4 -22 -1 -25 26 -23 16 1 34 8
40 15 5 7 20 12 33 10 17 -3 22 2 22 17 0 19 -5 21 -49 20 -28 -1 -54 -5 -59
-8z"/>
<path d="M330 1230 c0 -11 2 -20 4 -20 2 0 6 9 9 20 3 11 1 20 -4 20 -5 0 -9
-9 -9 -20z"/>
<path d="M2100 1231 c14 -27 30 -35 43 -22 8 8 6 15 -9 26 -29 22 -47 20 -34
-4z"/>
<path d="M1836 1225 c-3 -8 -1 -15 4 -15 13 0 22 18 11 24 -5 3 -11 -1 -15 -9z"/>
<path d="M827 1224 c-8 -8 1 -24 14 -24 5 0 9 7 9 15 0 15 -12 20 -23 9z"/>
<path d="M1177 1213 c-11 -10 -8 -20 8 -27 10 -4 15 1 15 14 0 20 -11 26 -23
13z"/>
<path d="M280 1200 c19 -13 30 -13 30 0 0 6 -10 10 -22 10 -19 0 -20 -2 -8
-10z"/>
<path d="M1820 1175 c0 -8 5 -15 10 -15 6 0 10 7 10 15 0 8 -4 15 -10 15 -5 0
-10 -7 -10 -15z"/>
<path d="M2165 1137 c-4 -10 -5 -21 -1 -24 10 -10 18 4 13 24 -4 17 -4 17 -12
0z"/>
<path d="M3717 1095 c-4 -23 -1 -25 22 -21 14 2 35 5 45 5 25 1 19 7 -26 25
-35 15 -36 15 -41 -9z"/>
<path d="M840 1100 c0 -5 5 -10 10 -10 6 0 10 5 10 10 0 6 -4 10 -10 10 -5 0
-10 -4 -10 -10z"/>
<path d="M2997 1103 c-4 -3 -7 -20 -7 -37 l1 -31 19 23 c24 29 12 70 -13 45z"/>
<path d="M1847 1088 l-27 -10 24 -19 c29 -23 37 -24 30 -4 -5 11 -2 13 10 9
16 -6 46 11 46 27 0 12 -48 10 -83 -3z"/>
<path d="M2650 1085 c0 -16 16 -20 24 -6 3 5 -1 11 -9 15 -9 3 -15 0 -15 -9z"/>
<path d="M2200 1070 c0 -5 10 -10 23 -10 18 0 19 2 7 10 -19 13 -30 13 -30 0z"/>
<path d="M810 1048 c0 -19 8 -27 36 -36 31 -9 35 -8 32 6 -2 9 -18 24 -36 35
l-32 19 0 -24z"/>
<path d="M3375 1060 c-4 -7 -2 -16 6 -21 18 -11 23 -4 11 17 -7 12 -11 13 -17
4z"/>
<path d="M3785 1019 c-10 -15 1 -23 20 -15 9 3 13 10 10 16 -8 13 -22 13 -30
-1z"/>
<path d="M2994 1005 c-16 -12 -17 -14 -3 -15 9 0 19 7 23 15 7 19 5 19 -20 0z"/>
<path d="M1820 962 c1 -12 38 -52 49 -52 5 0 19 -9 30 -21 20 -22 41 -19 41 6
0 8 -18 19 -40 25 -22 6 -38 15 -36 19 3 4 -6 13 -19 19 -14 7 -25 8 -25 4z"/>
<path d="M1880 960 c0 -5 7 -10 15 -10 8 0 15 5 15 10 0 6 -7 10 -15 10 -8 0
-15 -4 -15 -10z"/>
<path d="M3472 938 c2 -6 10 -14 16 -16 7 -2 10 2 6 12 -7 18 -28 22 -22 4z"/>
<path d="M2598 916 c-3 -14 -2 -26 2 -26 13 0 21 33 12 42 -6 6 -11 -1 -14
-16z"/>
<path d="M2155 910 c3 -5 8 -10 11 -10 2 0 4 5 4 10 0 6 -5 10 -11 10 -5 0 -7
-4 -4 -10z"/>
<path d="M2195 890 c-3 -5 -1 -10 4 -10 6 0 11 5 11 10 0 6 -2 10 -4 10 -3 0
-8 -4 -11 -10z"/>
<path d="M2650 855 c0 -14 5 -25 10 -25 6 0 10 11 10 25 0 14 -4 25 -10 25 -5
0 -10 -11 -10 -25z"/>
<path d="M2186 861 c-4 -5 -2 -12 3 -15 5 -4 12 -2 15 3 4 5 2 12 -3 15 -5 4
-12 2 -15 -3z"/>
<path d="M2980 849 c0 -5 5 -7 10 -4 6 3 10 8 10 11 0 2 -4 4 -10 4 -5 0 -10
-5 -10 -11z"/>
<path d="M2226 819 c-3 -18 -6 -41 -6 -53 1 -21 1 -21 15 -2 16 22 20 72 6 80
-5 3 -11 -8 -15 -25z"/>
<path d="M3513 843 c-7 -2 -13 -11 -13 -19 0 -8 -7 -14 -15 -14 -9 0 -15 -9
-15 -22 0 -20 4 -18 40 17 22 21 40 40 40 42 0 4 -23 2 -37 -4z"/>
<path d="M881 828 c0 -7 4 -21 8 -31 6 -16 9 -17 19 -4 7 8 10 22 6 31 -7 19
-34 22 -33 4z"/>
<path d="M3742 822 c-20 -15 -21 -20 -9 -36 13 -18 15 -17 26 14 14 41 12 43
-17 22z"/>
<path d="M1230 820 c0 -5 5 -10 11 -10 5 0 7 5 4 10 -3 6 -8 10 -11 10 -2 0
-4 -4 -4 -10z"/>
<path d="M1970 813 l-35 -15 30 -9 c32 -9 49 0 43 24 -3 14 -7 14 -38 0z"/>
<path d="M2123 819 c-27 -10 -30 -41 -7 -64 15 -14 17 -14 30 2 10 13 12 13 9
3 -3 -9 1 -24 9 -35 14 -18 15 -16 10 25 -3 25 -6 50 -6 57 -2 17 -19 22 -45
12z"/>
<path d="M1870 760 c0 -11 5 -20 10 -20 6 0 10 9 10 20 0 11 -4 20 -10 20 -5
0 -10 -9 -10 -20z"/>
<path d="M3483 753 c-18 -6 -16 -33 1 -33 8 0 17 4 20 8 7 12 -7 30 -21 25z"/>
<path d="M1870 715 c0 -8 6 -15 14 -15 22 0 28 17 10 24 -22 9 -24 8 -24 -9z"/>
<path d="M2591 714 c0 -11 3 -14 6 -6 3 7 2 16 -1 19 -3 4 -6 -2 -5 -13z"/>
<path d="M3511 704 c0 -11 3 -14 6 -6 3 7 2 16 -1 19 -3 4 -6 -2 -5 -13z"/>
<path d="M3008 703 c-20 -3 -28 -10 -28 -24 0 -20 0 -20 30 1 17 12 30 23 30
26 0 2 -1 3 -2 3 -2 -1 -15 -4 -30 -6z"/>
<path d="M1890 666 c0 -9 5 -16 10 -16 6 0 10 4 10 9 0 6 -4 13 -10 16 -5 3
-10 -1 -10 -9z"/>
<path d="M1200 625 c0 -8 2 -15 4 -15 2 0 6 7 10 15 3 8 1 15 -4 15 -6 0 -10
-7 -10 -15z"/>
<path d="M2957 623 c-12 -11 -7 -23 9 -23 10 0 14 -6 11 -15 -9 -22 13 -29 31
-10 16 17 16 17 0 12 -13 -5 -19 0 -24 18 -6 25 -15 31 -27 18z"/>
<path d="M874 574 c3 -9 6 -18 6 -20 0 -2 5 -4 10 -4 6 0 10 9 10 20 0 12 -7
20 -16 20 -11 0 -14 -5 -10 -16z"/>
<path d="M880 510 c0 -5 5 -10 11 -10 5 0 7 5 4 10 -3 6 -8 10 -11 10 -2 0 -4
-4 -4 -10z"/>
<path d="M1860 461 c0 -5 7 -11 15 -15 9 -3 15 0 15 9 0 8 -7 15 -15 15 -8 0
-15 -4 -15 -9z"/>
<path d="M3350 450 c0 -5 5 -10 10 -10 6 0 10 5 10 10 0 6 -4 10 -10 10 -5 0
-10 -4 -10 -10z"/>
<path d="M2670 435 c0 -8 5 -15 10 -15 6 0 10 7 10 15 0 8 -4 15 -10 15 -5 0
-10 -7 -10 -15z"/>
<path d="M2230 430 c0 -5 5 -10 11 -10 5 0 7 5 4 10 -3 6 -8 10 -11 10 -2 0
-4 -4 -4 -10z"/>
<path d="M888 413 c7 -3 16 -2 19 1 4 3 -2 6 -13 5 -11 0 -14 -3 -6 -6z"/>
<path d="M1902 387 c3 -24 21 -27 26 -4 2 8 -4 17 -13 21 -13 4 -16 1 -13 -17z"/>
<path d="M2230 359 c7 -11 14 -19 16 -16 7 7 -7 37 -17 37 -6 0 -5 -9 1 -21z"/>
<path d="M3716 361 c-3 -5 1 -14 9 -21 13 -10 15 -9 15 9 0 21 -14 28 -24 12z"/>
<path d="M2632 325 c2 -19 8 -25 27 -25 l24 0 -23 25 c-13 14 -25 25 -27 25
-1 0 -2 -11 -1 -25z"/>
<path d="M3017 344 c-3 -6 1 -27 10 -45 14 -27 18 -30 21 -15 2 10 0 21 -6 25
-5 3 -11 15 -14 26 -2 13 -6 16 -11 9z"/>
<path d="M867 290 c-21 -25 -22 -37 -2 -20 8 6 19 9 25 5 15 -9 30 3 23 20 -7
21 -25 19 -46 -5z"/>
<path d="M3070 286 c0 -8 5 -18 10 -21 6 -3 10 3 10 14 0 12 -4 21 -10 21 -5
0 -10 -6 -10 -14z"/>
<path d="M3720 289 c0 -5 5 -7 10 -4 6 3 10 8 10 11 0 2 -4 4 -10 4 -5 0 -10
-5 -10 -11z"/>
<path d="M3693 265 c4 -9 7 -19 7 -21 0 -2 7 -4 15 -4 22 0 18 18 -7 31 -18
10 -20 9 -15 -6z"/>
<path d="M2650 240 c0 -5 7 -10 16 -10 8 0 12 5 9 10 -3 6 -10 10 -16 10 -5 0
-9 -4 -9 -10z"/>
<path d="M1215 227 c-4 -10 -5 -21 -1 -24 10 -10 18 4 13 24 -4 17 -4 17 -12
0z"/>
<path d="M1980 178 c0 -49 5 -47 13 5 3 20 2 37 -4 37 -5 0 -9 -19 -9 -42z"/>
<path d="M2630 185 c0 -9 5 -15 11 -13 6 2 11 8 11 13 0 5 -5 11 -11 13 -6 2
-11 -4 -11 -13z"/>
<path d="M926 161 c15 -15 57 -17 61 -3 3 8 -7 12 -33 12 -23 0 -34 -4 -28 -9z"/>
<path d="M2605 139 c-4 -11 -4 -23 -2 -26 9 -8 27 7 27 22 0 23 -18 27 -25 4z"/>
<path d="M1103 103 c-19 -7 -16 -19 6 -20 14 -1 18 3 14 13 -3 8 -6 14 -7 13
0 0 -7 -3 -13 -6z"/>
<path d="M2081 74 c0 -11 3 -14 6 -6 3 7 2 16 -1 19 -3 4 -6 -2 -5 -13z"/>
<path d="M2000 69 c0 -5 5 -7 10 -4 6 3 10 8 10 11 0 2 -4 4 -10 4 -5 0 -10
-5 -10 -11z"/>
<path d="M2882 61 c4 -22 25 -24 30 -4 4 13 -1 19 -14 19 -11 0 -17 -6 -16
-15z"/>
<path d="M2728 37 c11 -11 25 -16 31 -13 20 12 12 24 -20 28 -30 5 -30 5 -11
-15z"/>
<path d="M2830 50 c0 -6 -11 -8 -25 -6 -22 4 -23 3 -12 -14 10 -17 13 -17 27
-5 9 8 20 12 23 8 4 -3 7 -1 7 5 0 6 -4 14 -10 17 -5 3 -10 1 -10 -5z"/>
</g>
</svg>
